<svg width="112" height="112" viewBox="0 0 112 112" fill="none" xmlns="http://www.w3.org/2000/svg">
<circle cx="56" cy="56" r="56" fill="#2B4372"/>
<path fill-rule="evenodd" clip-rule="evenodd" d="M81.6551 30.3193C78.3802 27.0385 74.4837 24.4371 70.1914 22.6657C65.899 20.8944 61.2962 19.9884 56.6496 20.0001C37.165 20.0001 21.3032 35.7827 21.2953 55.1826C21.2953 61.3827 22.9217 67.434 26.0129 72.7719L21 91L39.7403 86.1049C44.9241 88.9134 50.7317 90.386 56.6338 90.3886H56.6496C76.1302 90.3886 91.992 74.6061 91.9999 55.2061C92.0132 50.5834 91.1059 46.0038 89.3303 41.7322C87.5547 37.4606 84.946 33.5815 81.6551 30.3193ZM56.6496 84.451H56.6378C51.3749 84.4516 46.2088 83.0423 41.6817 80.3712L40.6106 79.7363L29.4901 82.6404L32.4553 71.8509L31.7583 70.7457C28.8158 66.0835 27.2582 60.6882 27.2652 55.1826C27.273 39.0591 40.4531 25.9416 56.6614 25.9416C60.5215 25.9331 64.345 26.6866 67.9105 28.1585C71.4761 29.6304 74.7129 31.7915 77.4337 34.5168C80.169 37.229 82.3371 40.4539 83.8126 44.0051C85.2881 47.5563 86.0418 51.3633 86.03 55.2061C86.0222 71.3296 72.8421 84.451 56.6496 84.451ZM72.7673 62.5467C71.8813 62.1039 67.5417 59.9797 66.7305 59.6857C65.9233 59.3918 65.3365 59.2468 64.7458 60.1247C64.1552 61.0026 62.4619 62.9818 61.946 63.5696C61.4301 64.1575 60.9143 64.2281 60.0322 63.7891C59.1501 63.3502 56.303 62.4213 52.9283 59.4271C50.3017 57.0952 48.5297 54.2185 48.0138 53.3367C47.4979 52.4549 47.9587 51.9806 48.4037 51.5417C48.8014 51.1498 49.2857 50.5149 49.7268 50.0014C50.1678 49.488 50.3135 49.1235 50.6089 48.5357C50.9042 47.9478 50.7585 47.4344 50.534 46.9954C50.3135 46.5526 48.5454 42.2258 47.809 40.4661C47.0963 38.7612 46.3678 38.9885 45.8244 38.965C45.2615 38.9421 44.6983 38.9317 44.135 38.9337C43.6871 38.945 43.2464 39.0484 42.8405 39.2372C42.4346 39.426 42.0722 39.6963 41.7762 40.031C40.965 40.9129 38.685 43.0371 38.685 47.3638C38.685 51.6906 41.851 55.8724 42.2921 56.4603C42.7331 57.0481 48.5218 65.9251 57.382 69.7345C59.4927 70.6399 61.1387 71.1807 62.4185 71.5883C64.5332 72.2585 66.4588 72.1605 67.9828 71.9371C69.68 71.6863 73.2083 69.8129 73.9447 67.7593C74.6811 65.7056 74.6811 63.9459 74.4606 63.5775C74.24 63.2091 73.6454 62.9857 72.7673 62.5467Z" fill="white"/>
</svg>
