<svg width="320" height="242" viewBox="0 0 320 242" fill="none" xmlns="http://www.w3.org/2000/svg">
<g clip-path="url(#clip0_38_70)">
<path d="M94.1316 106.919C92.8054 99.9832 92.1266 93.527 90.2991 87.4149C85.4327 71.1022 70.0713 61.5482 54.1251 64.4061C39.0665 67.097 28.018 82.0851 28.7699 98.6482C29.3129 109.965 29.3755 109.788 19.0893 105.803C16.4891 104.76 13.3144 105.084 10.4009 105.125C2.48522 105.24 1.15898 102.747 0.0938101 95.1228C-0.762503 88.9899 4.27095 85.381 3.97855 79.7279C3.67571 74.2521 3.90545 68.3173 5.77471 63.2692C7.39335 58.9094 10.8499 54.0489 14.8391 51.9316C35.2088 41.0478 58.2992 36.2912 81.3182 38.2368C84.9628 38.508 89.4114 36.3698 92.5443 34.0648C103.885 25.7207 114.777 16.8029 125.961 8.22935C132.457 3.25417 140.279 2.17987 148.132 1.54363C187.971 -1.65842 227.769 0.907395 267.587 2.20073C273.644 2.3989 279.722 1.58535 285.789 1.28287C287.46 1.19943 289.12 1.28287 290.791 1.28287L291.418 2.86828C289.026 4.09903 286.645 5.35064 284.233 6.53967C281.821 7.72871 280.463 8.79258 282.343 11.6922C285.58 16.6778 288.034 22.2475 291.741 26.8576C293.882 29.5381 297.777 30.8106 300.973 33.8875L206.34 36.1717C207.029 26.9306 207.656 18.5552 208.282 10.1902H207.583C206.789 18.5969 206.006 26.9932 205.129 36.2656L141.908 38.3516L141.793 39.0921C142.799 39.3484 143.827 39.509 144.863 39.5719C163.994 38.9252 183.115 38.0908 202.246 37.5798C230.505 36.8392 258.763 36.3281 287.021 35.6919C289.978 35.7184 292.933 35.5931 295.877 35.3164C303.74 34.3464 308.293 36.3594 310.372 44.0569C312.157 50.6279 312.063 57.6995 312.92 64.5416C313.128 66.1896 313.337 68.5781 314.392 69.2352C317.702 71.2586 318.329 73.9496 318.433 77.5272C318.559 81.6992 319.989 85.8713 320.031 90.0433C320.094 95.4357 313.358 101.318 308.116 100.755C307.207 100.651 306.09 98.8151 305.787 97.626C304.993 94.4344 304.91 91.055 303.97 87.9156C299.542 73.1465 288.818 64.9693 274.615 65.23C260.413 65.4908 248.717 74.8988 245.052 89.4384C244.017 93.4783 243.395 97.6122 243.193 101.777C243.047 105.396 241.773 106.523 238.191 106.502C222.359 106.419 206.517 106.565 190.676 106.648C159.702 106.836 128.722 107.027 97.7344 107.222C96.5126 107.107 95.3221 106.982 94.1316 106.919ZM142.169 36.0569L203.144 34.0335C203.886 25.147 204.554 17.1158 205.233 8.68828C186.885 8.68828 169.174 8.68828 151.452 8.68828C150.422 8.6762 149.42 9.02701 148.622 9.67915C142.795 15.4366 137.062 21.2879 130.379 28.0466C138.931 27.0245 140.237 27.9944 142.169 36.0569ZM280.63 32.0622C274.584 24.1666 269.54 17.3766 264.225 10.816C262.978 9.66382 261.339 9.02969 259.64 9.0429C244.509 8.81343 229.356 8.68827 214.235 8.75086C213.002 8.75086 210.82 10.2111 210.705 11.1915C209.838 18.4926 209.379 25.9189 208.752 33.877L280.63 32.0622ZM93.505 34.6697C100.815 35.5042 106.433 37.392 111.352 32.6984C117.882 26.4404 124.374 20.1823 130.828 13.9242C131.618 12.9327 132.281 11.8465 132.801 10.6909L131.945 9.02205C129.408 9.71044 126.619 9.93989 124.405 11.1915C121.157 13.206 118.058 15.4507 115.132 17.9085C108.303 23.1236 101.515 28.4325 93.505 34.6697ZM14.2647 65.835C24.5092 64.6772 38.6906 53.0581 39.5364 45.3815C29.6157 44.2446 14.4214 56.3018 14.2647 65.835ZM312.262 59.4204C310.716 53.8925 309.505 48.4897 307.604 43.3267C306.915 41.4702 304.743 39.9578 302.926 38.7896C302.338 38.5189 301.695 38.3884 301.048 38.4083C300.401 38.4282 299.768 38.5981 299.198 38.9044C298.55 39.2903 298.237 41.1886 298.571 42.1377C300.785 48.5001 303.072 54.8625 305.693 61.0684C306.215 62.2992 308.283 62.8937 309.63 63.7698C310.466 62.4035 311.301 61.0371 312.272 59.4204H312.262ZM102.361 52.1193C94.967 49.1572 89.0042 50.2628 86.6963 55.1024C92.0953 55.1232 97.3062 56.8442 102.381 52.1402L102.361 52.1193ZM188.222 49.0529V50.4088H208.063V49.0529H188.222ZM88.2314 39.0191L88.3463 40.01H123.424V39.0191H88.2314Z" fill="#E1E1E1"/>
<path d="M274.762 120.885C269.436 120.947 264.213 119.429 259.751 116.524C255.29 113.619 251.793 109.457 249.701 104.566C247.609 99.6742 247.017 94.2728 248.001 89.0452C248.984 83.8176 251.499 78.999 255.225 75.1994C258.952 71.3997 263.724 68.7898 268.936 67.7002C274.149 66.6105 279.568 67.0901 284.508 69.0781C289.447 71.0661 293.685 74.4732 296.685 78.8681C299.685 83.263 301.312 88.4481 301.359 93.7669C301.422 97.2988 300.78 100.808 299.473 104.09C298.165 107.372 296.217 110.362 293.742 112.885C291.267 115.408 288.314 117.415 285.056 118.789C281.798 120.162 278.298 120.875 274.762 120.885ZM268.809 75.3786C269.853 78.6954 270.584 81.3446 271.576 83.8791C271.879 84.6301 273.091 85.6418 273.665 85.5167C274.197 85.4046 274.697 85.1725 275.126 84.8381C275.555 84.5037 275.902 84.0758 276.14 83.5871C276.808 80.9483 277.038 78.2051 277.571 74.6276L268.809 75.3786ZM290.739 82.5962L283.69 76.7762C282.386 79.1143 281.208 81.5201 280.16 83.9834C279.764 85.0264 280.16 86.4137 280.254 87.6444C281.434 87.5297 282.792 87.7487 283.753 87.2376C285.841 86.1112 287.742 84.5988 290.697 82.5962H290.739ZM294.133 97.4383C293.799 94.1424 293.527 91.5557 293.214 88.458C289.904 89.501 287.262 90.1581 284.724 91.1072C283.962 91.3888 282.844 92.5257 282.959 93.0159C283.07 93.5491 283.297 94.0515 283.624 94.4876C283.95 94.9237 284.369 95.2829 284.849 95.54C287.502 96.3327 290.227 96.6769 294.133 97.4383ZM291.731 103.331C288.598 101.683 286.29 100.307 283.815 99.1593C283.095 98.8359 281.591 98.909 281.247 99.3783C280.683 100.161 280.254 101.725 280.672 102.413C282.207 104.948 284.118 107.263 286.155 110.027L291.731 103.331ZM257.113 84.7761C260.246 86.4345 262.512 87.8113 264.914 88.7709C265.443 88.9372 266.004 88.9729 266.55 88.8748C267.096 88.7767 267.609 88.5478 268.047 88.2076C268.548 87.6757 268.444 85.986 267.974 85.1829C266.606 82.8778 264.924 80.7501 262.992 78.0382L257.113 84.7761ZM255.63 99.5452C258.899 98.6378 261.604 98.0745 264.131 97.0837C264.589 96.7826 264.975 96.3827 265.258 95.9135C265.542 95.4442 265.717 94.9174 265.77 94.3718C265.822 93.746 264.726 92.5779 263.964 92.4006C261.322 91.7852 258.606 91.4827 255.223 90.9612C255.411 94.0172 255.494 96.4996 255.672 99.5452H255.63ZM267.253 99.3157L258.512 105.48L264.715 111.07C270.198 103.905 270.49 102.591 267.295 99.3157H267.253ZM280.035 112.938C279.085 109.715 278.469 107.065 277.456 104.593C277.21 104.112 276.848 103.7 276.403 103.392C275.959 103.085 275.445 102.892 274.908 102.831C274.135 102.904 273.08 104.187 272.819 105.115C272.172 107.556 271.9 110.09 271.42 112.969L280.035 112.938Z" fill="#E1E1E1"/>
<path d="M60.0986 120.937C52.9603 120.998 46.0899 118.225 40.9982 113.228C35.9066 108.231 33.0107 101.418 32.9472 94.2883C32.8573 90.7164 33.481 87.1623 34.7819 83.8339C36.0829 80.5054 38.0349 77.4693 40.5241 74.903C43.0133 72.3366 45.9896 70.2915 49.2791 68.8871C52.5687 67.4828 56.1054 66.7473 59.6828 66.7237C63.2602 66.7002 66.8064 67.389 70.1142 68.7499C73.422 70.1108 76.425 72.1165 78.9479 74.6498C81.4707 77.1831 83.4627 80.1933 84.8075 83.5043C86.1523 86.8153 86.8229 90.3609 86.7801 93.9337C86.8229 97.4619 86.1646 100.964 84.8433 104.236C83.522 107.508 81.5639 110.486 79.0825 112.998C76.601 115.509 73.6454 117.504 70.3868 118.867C67.1283 120.23 63.6314 120.933 60.0986 120.937ZM41.0091 99.7016C44.4866 98.6586 47.0033 98.1788 49.3634 97.2401C49.8526 96.9983 50.2768 96.643 50.6002 96.2038C50.9236 95.7646 51.1369 95.2545 51.2222 94.716C51.0992 94.1939 50.849 93.7103 50.4937 93.3081C50.1385 92.906 49.6892 92.5978 49.1859 92.4109C46.596 91.7538 43.9018 91.5139 40.5392 91.0029L41.0091 99.7016ZM50.5434 111.54L55.8484 101.662C50.0213 97.4904 48.3191 104.625 43.1081 104.791L50.5434 111.54ZM54.282 75.3785C54.9854 78.0332 55.8219 80.651 56.7882 83.222C57.2268 84.265 58.4695 84.8803 59.3467 85.6939C60.1613 84.776 61.4353 83.9625 61.7068 82.8986C62.2844 80.1984 62.7132 77.4685 62.9913 74.7214L54.282 75.3785ZM54.9921 87.2376L48.34 78.0486L42.0743 85.6417C47.2017 85.3497 49.5409 91.9937 54.9921 87.2376ZM67.2729 98.0745C63.8476 104.145 69.9671 105.845 71.1472 110.726L77.1413 103.373L67.2729 98.0745ZM69.163 76.9222C67.6279 79.9052 66.2599 82.3145 65.1634 84.8386C65.0082 85.2658 64.9557 85.7233 65.0102 86.1745C65.0646 86.6256 65.2244 87.0576 65.4767 87.4357C65.8293 87.7379 66.2511 87.9484 66.7048 88.0485C67.1584 88.1485 67.6298 88.1351 68.077 88.0094C70.6459 86.4553 73.0477 84.6092 76.0866 82.4501L69.163 76.9222ZM78.8853 88.51C75.46 89.553 72.7971 90.1893 70.2386 91.1489C69.4867 91.4305 68.5051 92.6612 68.6095 93.2349C68.7246 93.7561 68.9562 94.2446 69.2872 94.6637C69.6182 95.0828 70.0398 95.4216 70.5206 95.6547C73.2253 96.3848 76.0344 96.6977 78.8749 97.2088L78.8853 88.51ZM65.5916 112.823C64.6726 109.788 64.0774 107.284 63.1166 104.927C62.7407 104.009 61.5711 102.841 60.7461 102.841C60.2101 102.965 59.7136 103.221 59.3016 103.586C58.8895 103.95 58.5748 104.411 58.386 104.927C57.6759 107.482 57.3417 110.142 56.8091 113.438L65.5916 112.823Z" fill="#E1E1E1"/>
<path d="M256.654 212.441H79.0315C75.2596 212.441 72.2019 215.495 72.2019 219.262V235.179C72.2019 238.946 75.2596 242 79.0315 242H256.654C260.426 242 263.483 238.946 263.483 235.179V219.262C263.483 215.495 260.426 212.441 256.654 212.441Z" fill="#E1E1E1"/>
<path d="M226.568 107.868H109.117C107.329 107.868 105.88 109.316 105.88 111.102V122.512C105.88 124.298 107.329 125.746 109.117 125.746H226.568C228.356 125.746 229.805 124.298 229.805 122.512V111.102C229.805 109.316 228.356 107.868 226.568 107.868Z" fill="#E1E1E1"/>
<path d="M115.78 220.076L217.597 180.639C218.136 180.288 218.593 179.825 218.937 179.282C219.281 178.739 219.505 178.129 219.593 177.492C219.681 176.856 219.632 176.208 219.448 175.592C219.264 174.976 218.95 174.407 218.527 173.922L125.377 118.883" stroke="#E1E1E1" stroke-width="9" stroke-miterlimit="10"/>
<path d="M219.895 220.076L118.077 180.639C117.539 180.288 117.082 179.825 116.738 179.282C116.393 178.739 116.17 178.129 116.082 177.492C115.994 176.856 116.043 176.208 116.227 175.592C116.411 174.976 116.725 174.407 117.148 173.922L210.298 118.883" stroke="#E1E1E1" stroke-width="9" stroke-miterlimit="10"/>
</g>
<defs>
<clipPath id="clip0_38_70">
<rect width="320" height="242" fill="white"/>
</clipPath>
</defs>
</svg>
