<svg width="561" height="608" viewBox="0 0 561 608" fill="none" xmlns="http://www.w3.org/2000/svg">
<g clip-path="url(#clip0_161_139)">
<path d="M234.818 589.739C233.2 585.778 231.48 582.022 229.94 577.907C229.279 575.856 228.162 573.982 226.672 572.427C225.182 570.872 223.359 569.676 221.34 568.931C219.312 568.185 217.618 568.339 216.873 570.808C216.668 571.477 216.232 572.069 216.052 572.737C213.69 581.842 206.348 584.492 198.416 586.755C188.147 589.687 177.878 593.134 167.61 596.374C166.146 596.87 164.596 597.062 163.056 596.939C161.516 596.815 160.017 596.378 158.65 595.654C146.456 589.481 134.211 583.386 122.017 577.213C119.501 575.735 117.49 573.529 116.248 570.885C115.006 568.241 114.592 565.282 115.06 562.398C116.318 555.042 117.781 547.686 119.116 540.304C119.672 537.562 119.455 534.719 118.489 532.093C117.523 529.468 115.847 527.163 113.648 525.438C107.153 519.677 100.966 513.53 94.9592 507.28C92.238 504.45 90.0046 503.241 85.9228 504.708C78.4011 507.588 70.5199 509.697 62.8185 512.166C60.3204 512.994 57.6142 512.934 55.1549 511.997C52.6956 511.061 50.6334 509.304 49.3152 507.022C44.1809 498.535 39.3547 489.918 34.4001 481.302C31.8329 476.647 28.9577 471.991 26.3392 467.285C24.6578 464.525 24.0206 461.252 24.5435 458.061C25.0664 454.871 26.7147 451.974 29.1887 449.898C34.169 445.268 39.1493 440.664 43.9756 435.88C45.3959 434.446 46.4051 432.655 46.8975 430.696C47.3898 428.737 47.347 426.681 46.7738 424.743C44.2579 414.181 41.5539 403.653 38.6615 393.159C38.0841 390.806 36.8547 388.664 35.1152 386.98C33.3756 385.297 31.1967 384.139 28.8294 383.642C22.5655 381.996 16.3273 380.196 10.1148 378.37C7.17681 377.611 4.57378 375.896 2.71497 373.494C0.856152 371.091 -0.153014 368.138 -0.153809 365.098C0.000220597 349.666 0.359635 334.234 0.821722 318.802C0.770746 316.766 1.3642 314.766 2.51707 313.089C3.66994 311.412 5.32307 310.144 7.23961 309.465C17.3028 305.967 27.5201 302.907 37.686 299.692C37.9748 299.642 38.27 299.642 38.5588 299.692L43.3851 304.553C43.2054 316.744 42.9744 328.936 42.7947 341.127C42.7947 344.934 42.6663 348.843 42.7947 352.521C42.8582 354.729 43.6104 356.861 44.9457 358.619C46.281 360.377 48.1322 361.671 50.2394 362.32C56.8113 364.327 63.3832 366.359 70.0065 368.133C72.8373 368.839 75.4168 370.319 77.4567 372.408C79.4967 374.497 80.9168 377.113 81.5586 379.965C84.3055 389.867 86.6929 399.872 89.2601 409.851C90.2624 413.125 90.2307 416.629 89.1692 419.884C88.1077 423.139 86.0683 425.986 83.33 428.036C78.7091 431.971 74.3193 436.24 69.9808 440.51C68.4522 442.191 67.5223 444.331 67.3365 446.597C67.1507 448.864 67.7195 451.128 68.954 453.036C71.8805 458.385 74.9868 463.658 78.016 468.931C82.4059 476.647 86.7187 484.183 91.2626 491.719C94.3688 496.863 98.2965 497.892 103.688 495.294C109.079 492.696 114.829 489.97 120.425 487.346C122.974 486.287 125.786 486.038 128.481 486.631C131.176 487.225 133.624 488.632 135.495 490.664C142.375 497.454 149.306 504.219 156.34 510.855C162.065 516.256 163.117 522.712 161.474 530.093C160.037 536.832 158.907 543.622 157.675 550.412C157.438 552.608 157.841 554.825 158.834 556.797C159.827 558.768 161.368 560.41 163.271 561.523C175.542 567.748 187.856 573.921 200.212 580.042C201.111 580.556 202.109 580.87 203.14 580.962C204.17 581.054 205.208 580.922 206.183 580.576C207.158 580.229 208.047 579.675 208.788 578.953C209.53 578.231 210.107 577.356 210.481 576.39C213.433 570.371 216.283 564.327 219.081 558.386C222.649 550.67 226.962 548.278 235.305 549.435C243.649 550.592 252.12 551.595 260.515 552.804C261.904 552.776 263.273 553.149 264.456 553.879C265.64 554.608 266.589 555.664 267.19 556.92C266.317 557.871 265.521 558.9 264.622 559.826C258.598 565.896 252.548 571.949 246.473 577.984C242.699 582.1 238.745 585.906 234.818 589.739Z" fill="#2B4372" fill-opacity="0.1"/>
<path d="M248.115 508.746C245.601 508.769 243.088 508.623 240.593 508.309C212.449 502.915 186.635 489 166.634 468.442C143.391 445.356 127.178 416.124 119.886 384.157C112.698 355.293 113.238 325.039 121.452 296.451C127.339 275.588 138.102 256.429 152.848 240.561C168.33 223.569 188.523 211.595 210.84 206.173C231.221 201.23 252.552 201.86 272.606 207.999C292.381 213.868 310.627 224.018 326.054 237.732C343.524 252.92 357.584 271.644 367.308 292.67C370.209 298.895 372.751 305.248 375.805 312.346C369.421 314.566 362.915 316.421 356.321 317.902C348.619 319.162 340.918 319.265 333.216 319.934C332.445 320.08 331.647 319.92 330.991 319.488C330.335 319.056 329.872 318.386 329.699 317.619C323.43 301.487 314.691 286.432 303.797 272.994C293.362 259.918 280.877 248.626 266.83 239.558C254.017 231.176 239.851 225.084 224.96 221.554C213.095 218.684 200.845 217.763 188.686 218.828C186.025 219.143 183.462 220.02 181.164 221.4C165.963 230.394 152.977 242.701 143.17 257.408C129.52 277.839 121.19 301.368 118.936 325.849C114.851 368.857 126.662 411.872 152.129 446.734C167.838 468.861 189.335 486.216 214.254 496.889C223.368 500.747 233.277 502.676 242.827 505.479C243.956 505.814 245.06 506.225 246.164 506.585L248.115 508.746Z" fill="#2B4372" fill-opacity="0.1"/>
<path d="M43.5388 304.939L38.7126 300.078C41.5108 299.28 42.1012 296.888 42.8457 294.548C44.9251 287.963 46.8761 281.379 49.1865 274.872C51.7537 267.773 49.4176 262.012 44.8224 256.713C40.2272 251.415 36.1711 246.425 32.1663 241.101C30.2702 238.793 29.1379 235.951 28.9263 232.97C28.7147 229.988 29.4344 227.014 30.9854 224.46C37.79 212.345 45.9553 201.049 55.3221 190.793C56.814 189.318 58.6492 188.24 60.6617 187.655C73.4975 183.411 86.3332 179.347 99.3744 175.258C101.128 174.644 103.008 174.486 104.839 174.796C106.67 175.106 108.394 175.876 109.848 177.032C114.315 180.376 118.833 183.642 123.454 187.012C124.72 185.388 125.608 183.502 126.052 181.49C126.497 179.479 126.486 177.393 126.021 175.386C124.995 167.85 123.942 160.34 123.095 152.778C122.299 145.756 125.79 141.204 132.439 139.224C142.374 136.291 152.155 132.819 162.116 129.913C171.665 127.135 181.344 124.769 190.996 122.197C196.49 120.782 202.061 119.625 207.58 118.287C210.363 117.574 213.309 117.879 215.888 119.147C218.466 120.415 220.509 122.564 221.648 125.206C225.268 133.848 228.656 142.593 232.096 151.312C232.096 151.492 231.891 151.826 231.788 152.109L230.479 153.498C229.427 152.135 228.499 150.68 227.706 149.152C224.883 142.13 222.213 135.031 219.44 127.984C217.104 121.965 213.228 120.036 206.938 121.554L173.308 129.681C172.122 129.853 170.983 130.266 169.961 130.895C168.939 131.523 168.056 132.354 167.366 133.337C166.677 134.319 166.194 135.433 165.949 136.609C165.704 137.784 165.701 138.998 165.941 140.175C166.993 148.097 168.354 155.993 169.252 163.915C169.764 166.689 169.459 169.552 168.374 172.156C167.289 174.759 165.471 176.99 163.143 178.575C156.468 183.154 149.81 187.758 143.17 192.387C136.521 196.991 131.002 196.76 124.584 191.796C119.141 187.577 113.571 183.514 108.051 179.424C106.381 178.213 104.318 177.673 102.269 177.911C100.221 178.149 98.3361 179.148 96.9869 180.71C88.1979 190.405 80.5014 201.04 74.0366 212.423C70.7249 218.262 71.2641 222.943 75.5769 228.138C79.8897 233.334 84.6133 239.069 89.0031 244.625C90.9675 246.919 92.3088 249.681 92.8979 252.645C93.4869 255.61 93.3038 258.676 92.3661 261.549C89.4909 270.808 86.59 280.042 83.5094 289.224C82.7236 292.107 80.9692 294.631 78.542 296.37C76.1148 298.108 73.1635 298.954 70.1858 298.766C64.3841 298.766 58.608 299.1 52.8062 299.1C51.105 298.951 49.3994 299.333 47.9238 300.194C46.4482 301.056 45.2752 302.354 44.5657 303.91C44.2835 304.308 43.9363 304.656 43.5388 304.939Z" fill="#2B4372" fill-opacity="0.1"/>
<path d="M486.655 308.385C487.143 300.669 481.187 296.4 477.773 290.716C475.54 287.467 473.688 283.972 472.253 280.299C471.76 277.693 472.083 274.998 473.177 272.583C476.258 264.867 479.852 257.408 483.035 249.743C485.603 243.905 489.299 240.201 495.871 239.79C501.134 239.455 506.397 238.838 511.659 238.272C513.679 238.113 515.582 237.257 517.043 235.85C518.503 234.443 519.431 232.572 519.669 230.556C521.491 218.21 523.263 205.839 525.06 193.493C525.327 192.47 525.376 191.401 525.202 190.357C525.029 189.313 524.637 188.318 524.053 187.437C523.469 186.555 522.706 185.807 521.813 185.242C520.92 184.677 519.918 184.307 518.873 184.157C514.226 182.999 509.554 182.022 504.882 180.993C502.18 180.633 499.695 179.318 497.874 177.286C496.053 175.254 495.015 172.638 494.947 169.908C493.972 162.192 492.816 154.476 491.635 146.76C491.038 143.908 491.259 140.946 492.272 138.215C493.285 135.484 495.049 133.096 497.36 131.327C502.007 127.521 506.32 123.328 510.838 119.419C513.405 117.078 513.739 113.863 514.355 110.751C515.139 111.173 515.878 111.673 516.562 112.243C524.829 120.542 533.078 128.867 541.31 137.217C538.127 140.201 534.969 143.236 531.734 146.168C529.921 147.665 528.554 149.632 527.78 151.854C527.006 154.076 526.855 156.469 527.345 158.771C528.602 166.23 529.604 173.766 530.399 181.302C530.352 182.628 530.76 183.93 531.554 184.992C532.347 186.054 533.48 186.812 534.764 187.14C541.464 189.326 548.061 191.95 554.659 194.47C556.701 195.314 558.411 196.804 559.528 198.713C560.645 200.622 561.108 202.844 560.846 205.041C559.126 217.516 557.432 230.016 555.557 242.464C555.32 245.336 554.053 248.025 551.991 250.035C549.929 252.044 547.211 253.238 544.339 253.395C539.205 253.395 534.07 254.45 528.936 254.784C526.829 254.856 524.79 255.549 523.074 256.774C521.357 258 520.039 259.706 519.284 261.677C515.561 269.959 511.916 278.293 508.45 286.703C507.755 288.266 507.475 289.983 507.637 291.686C507.799 293.389 508.397 295.022 509.374 296.425L516.254 306.585C515.356 307.537 514.509 308.488 513.687 309.414C509.554 313.709 505.395 317.979 501.237 322.274H500.723C498.721 320.217 496.718 318.159 494.69 316.127C491.918 313.529 489.274 310.957 486.655 308.385Z" fill="#2B4372" fill-opacity="0.1"/>
<path d="M486.655 308.385C489.222 310.957 491.918 313.529 494.536 316.101C496.564 318.133 498.567 320.191 500.569 322.248C498.695 324.177 496.847 326.081 494.947 327.984L470.508 352.418C466.734 351.184 463.012 349.846 459.212 348.792C458.046 348.496 456.812 348.642 455.747 349.203C449.817 353.036 443.887 356.919 438.136 361.06C436.436 362.309 435.085 363.976 434.213 365.899C433.34 367.822 432.977 369.938 433.156 372.043C433.156 378.138 433.31 384.234 433.336 390.33C433.336 396.863 430.768 401.235 424.71 403.19C414.441 406.534 403.967 409.311 393.596 412.346C389.643 413.478 386.151 411.858 382.634 410.52C373.598 407.151 364.664 403.653 355.499 400.386C353.562 399.774 351.825 398.652 350.47 397.136C349.115 395.62 348.192 393.766 347.798 391.77C347.028 388.349 345.975 385.031 345.231 381.636C345.204 381.298 345.107 380.97 344.945 380.672C344.784 380.374 344.561 380.113 344.292 379.907C344.024 379.701 343.715 379.554 343.385 379.475C343.056 379.396 342.714 379.388 342.381 379.45L329.135 366.153C334.808 362.912 343.999 367.285 345.873 374.178C347.464 379.939 348.979 385.726 350.571 391.487C351.957 396.631 354.447 398.226 359.581 397.403C370.781 395.486 381.722 392.275 392.184 387.835C393.956 387.092 395.451 385.812 396.459 384.175C397.468 382.537 397.939 380.624 397.806 378.704C397.806 373.2 397.986 367.67 397.549 362.192C397.103 358.502 397.797 354.763 399.536 351.479C401.276 348.196 403.978 345.525 407.279 343.828C413.312 340.15 419.036 335.957 424.915 331.996C426.748 330.772 428.91 330.139 431.113 330.18C433.315 330.221 435.452 330.936 437.238 332.228C441.858 335.7 446.479 339.172 451.203 342.516C452.609 343.49 454.331 343.894 456.023 343.646C457.714 343.398 459.249 342.516 460.316 341.179C468.352 331.353 476.31 321.503 484.294 311.652C484.961 310.597 485.808 309.517 486.655 308.385Z" fill="#2B4372" fill-opacity="0.1"/>
<path d="M248.116 508.746L246.165 506.739C247.089 506.573 248.024 506.47 248.963 506.431C257.049 506.431 265.11 506.688 273.197 506.611C274.882 506.513 276.515 505.991 277.946 505.093C289.411 498.546 299.666 490.072 308.264 480.042C327.851 457.357 337.863 430.633 341.637 401.209C341.637 400.618 341.637 400.026 341.637 399.409C341.674 398.726 341.803 398.051 342.022 397.403C343.145 399.672 344.72 401.686 346.649 403.323C348.579 404.959 350.822 406.183 353.241 406.919C358.76 408.925 364.254 411.009 369.747 413.066L378.758 416.487C375.739 427.208 371.429 437.52 365.922 447.197C358.744 460.253 349.334 471.944 338.12 481.739C326.228 492.092 312.356 499.91 297.35 504.716C282.344 509.523 266.518 511.218 250.837 509.697C249.894 509.494 248.98 509.174 248.116 508.746Z" fill="#2B4372" fill-opacity="0.1"/>
<path d="M454.925 145.654C452.589 140.278 450.458 134.825 447.917 129.553C440.514 114.305 429.55 101.071 415.956 90.9724C410.843 87.3016 404.685 85.3804 398.397 85.494C370.363 84.5166 345.719 93.6473 323.949 110.906C319.046 114.789 314.553 119.213 310.035 123.56C309.542 124.227 308.813 124.681 307.998 124.829C307.182 124.977 306.341 124.808 305.645 124.357C303.54 123.277 301.255 122.505 299.048 121.579L281.078 103.575C287.47 98.4313 293.58 93.0557 300.357 88.5804C312.856 80.2991 326.942 74.7192 341.714 72.1966C374.317 66.5639 402.992 74.923 427.405 97.171C440.443 109.357 450.245 124.605 455.926 141.538C456.142 142.457 456.253 143.398 456.26 144.342L454.925 145.654Z" fill="#2B4372" fill-opacity="0.1"/>
<path d="M445.324 41.0496C445.425 39.5322 445.605 38.0212 445.863 36.5228C446.3 34.6709 447.096 32.922 447.558 31.0958C448.231 29.2304 448.161 27.1769 447.362 25.3617C446.564 23.5466 445.099 22.1091 443.271 21.3479C433.96 17.0097 424.624 12.723 415.263 8.48777C414.388 7.99912 413.421 7.69964 412.424 7.60866C411.427 7.51768 410.421 7.63722 409.473 7.95956C408.525 8.28191 407.655 8.79991 406.918 9.4801C406.182 10.1603 405.597 10.9876 405.2 11.9086C401.734 17.8499 398.371 23.8685 394.674 29.6812C393.41 31.8914 391.506 33.6649 389.214 34.7672C386.922 35.8694 384.35 36.2484 381.839 35.8541C375.19 35.1082 368.489 34.7995 361.815 34.4395C359.463 34.4546 357.174 33.6801 355.313 32.2396C353.451 30.7991 352.125 28.7756 351.546 26.4919C349.826 20.6534 348.26 14.7635 346.72 8.87357C345.385 3.72953 342.535 1.49188 337.581 2.77789C327.175 5.48708 316.847 8.46205 306.595 11.7028C301.127 13.4775 299.253 16.8468 299.305 22.7882C299.356 28.7296 299.536 34.7995 299.613 40.7923C299.73 43.4781 299.125 46.1462 297.861 48.5172C296.596 50.8883 294.719 52.8751 292.425 54.2697C286.058 58.565 279.743 62.9632 273.402 67.3099C271.293 69.0502 268.64 69.9912 265.908 69.9676C263.176 69.9441 260.54 68.9577 258.461 67.1813C254.679 64.4035 250.931 61.5829 247.217 58.7193C245.92 57.3801 244.163 56.5866 242.303 56.5005C240.442 56.4145 238.619 57.0425 237.205 58.2564C236.852 58.4231 236.482 58.5524 236.101 58.6422L234.792 57.279C236.073 55.6586 237.855 54.5112 239.858 54.0176C241.862 53.524 243.972 53.7122 245.856 54.5527C253.789 57.4848 261.747 60.4169 269.628 63.4519C270.521 63.9333 271.537 64.139 272.547 64.0428C273.556 63.9467 274.515 63.5531 275.302 62.9117C280.436 59.208 285.724 55.8644 290.884 52.2636C292.679 51.154 294.155 49.5963 295.167 47.7431C296.18 45.89 296.694 43.805 296.66 41.6926L296.506 22.1709C296.362 19.3634 297.14 16.5857 298.721 14.2632C300.302 11.9406 302.599 10.2011 305.26 9.31082C315.629 5.13209 326.412 2.07128 337.427 0.180145C339.367 -0.117344 341.351 0.0681488 343.203 0.720267C352.496 4.03817 361.712 7.53612 370.954 11.0083C373.151 11.5435 375.255 12.4108 377.192 13.5804C379.173 15.1679 380.712 17.2409 381.659 19.5989C383.276 23.8685 384.226 28.3952 385.484 33.0248C387.014 32.8231 388.472 32.2487 389.729 31.352C390.987 30.4552 392.006 29.2634 392.698 27.8808C395.984 22.4024 399.141 16.8468 402.35 11.317C405.918 5.19558 410.308 3.60093 416.983 6.17295C428.073 10.3653 439.292 14.2491 450.356 18.7759C459.649 22.6082 468.685 27.1092 477.799 31.3788C479.972 32.3546 481.727 34.0725 482.752 36.2257C483.778 38.3788 484.005 40.827 483.395 43.1329C481.881 48.9971 480.186 54.8613 478.261 60.6226C476.561 64.4657 476.368 68.8094 477.722 72.7883C476.609 71.9868 475.538 71.1283 474.513 70.2163C464.723 60.5112 454.994 50.7889 445.324 41.0496Z" fill="#2B4372" fill-opacity="0.1"/>
<path d="M441.833 263.555C439.522 267.464 437.469 271.58 434.824 275.232C424.004 290.541 410.153 303.455 394.135 313.169C381.653 320.746 367.843 325.87 353.446 328.267C331.681 332.103 309.261 328.421 289.857 317.825C277.011 310.852 265.853 301.131 257.177 289.352C245.784 273.661 238.214 255.516 235.074 236.369C235.074 235.777 234.946 235.186 234.895 234.568C234.843 233.951 234.895 233.205 234.715 231.996C236.794 232.717 238.54 233.257 240.26 233.925C250.367 237.92 259.967 243.1 268.858 249.357C269.723 249.944 270.457 250.704 271.014 251.589C271.571 252.475 271.938 253.467 272.093 254.502C278.665 283.745 293.169 307.794 318.507 324.538C320.582 325.69 322.89 326.358 325.258 326.492C347.766 328.94 370.462 324.051 389.976 312.552C410.425 300.839 427.482 283.998 439.471 263.684C439.779 263.195 440.19 262.758 440.549 262.295L441.833 263.555Z" fill="#2B4372" fill-opacity="0.1"/>
<path d="M459.803 363.092C460.071 363.795 460.243 364.53 460.316 365.278C460.137 378.884 459.957 392.49 459.675 406.096C459.602 408.46 458.8 410.743 457.379 412.631C455.959 414.519 453.989 415.92 451.742 416.642C441.833 419.882 431.898 423.149 421.937 426.287C420.939 426.533 420.028 427.049 419.303 427.779C418.579 428.51 418.069 429.426 417.83 430.428C415.571 437.99 413.029 445.448 410.745 452.984C410.059 455.25 409.956 457.652 410.445 459.968C410.934 462.283 412 464.438 413.543 466.23C417.933 471.914 422.502 477.47 427.149 482.948C429.587 485.497 431.095 488.796 431.431 492.31C431.766 495.825 430.909 499.35 428.997 502.316C422.264 514.124 414.211 525.126 404.994 535.109C403.653 536.429 402.016 537.408 400.219 537.964C387.383 542.182 374.394 546.143 361.532 550.361C359.615 551.071 357.544 551.261 355.529 550.913C353.515 550.566 351.627 549.692 350.057 548.381C345.744 545.14 341.406 541.976 336.913 538.658C335.847 539.993 335.053 541.524 334.577 543.166C334.101 544.808 333.953 546.527 334.141 548.226C335.142 555.942 336.169 563.658 337.298 571.375C338.556 580.068 334.218 586.061 326.029 586.807L324.18 584.955C325.006 584.506 325.864 584.12 326.747 583.797C328.02 583.614 329.241 583.167 330.332 582.485C331.423 581.804 332.36 580.902 333.085 579.838C333.809 578.773 334.304 577.569 334.539 576.303C334.774 575.036 334.743 573.734 334.449 572.48C333.396 564.764 332.19 557.048 331.214 549.332C330.674 546.415 331.028 543.401 332.228 540.689C333.429 537.976 335.42 535.69 337.94 534.132C345.077 529.399 352.111 524.461 359.145 519.548C361.355 518.178 363.92 517.491 366.518 517.574C369.116 517.656 371.632 518.504 373.752 520.011C379.682 524.409 385.586 528.859 391.568 533.154C396.523 536.704 400.45 536.035 404.404 531.508C412.884 521.805 420.398 511.295 426.841 500.13C428.09 498.071 428.681 495.679 428.534 493.275C428.387 490.87 427.51 488.568 426.019 486.678C420.885 480.274 415.597 474.024 410.616 467.491C408.983 465.511 407.86 463.161 407.345 460.645C406.83 458.129 406.94 455.525 407.664 453.062C410.77 442.979 413.851 432.871 417.316 422.892C418.138 420.388 419.748 418.22 421.906 416.712C424.063 415.205 426.651 414.44 429.279 414.533C435.364 414.327 441.448 413.993 447.532 414.121C454.129 414.121 456.671 409.311 456.722 404.347C456.722 392.542 457.107 380.736 457.364 368.931C457.462 367.654 457.625 366.384 457.852 365.124L459.803 363.092Z" fill="#2B4372" fill-opacity="0.1"/>
<path d="M328.98 366.153L342.227 379.45C334.936 385.34 331.958 394.265 327.209 401.775C323.718 407.151 319.123 408.771 313.218 406.405C305.286 403.216 297.096 400.669 289.19 397.377C278.177 392.799 267.292 387.835 256.407 382.922C253.775 381.823 251.305 380.37 249.065 378.601C247.858 377.586 246.972 376.24 246.516 374.728C246.06 373.216 246.054 371.604 246.498 370.088C248.757 361.935 251.478 353.936 254.02 345.86L255.226 344.625C255.445 346.272 255.445 347.942 255.226 349.589C253.532 355.736 251.53 361.806 249.681 367.902C248.013 373.483 249.373 376.827 254.636 379.322C263.8 383.694 273.042 387.912 282.284 392.182C285.75 393.751 289.549 392.182 291.988 387.964C295.017 382.82 298.046 377.675 300.947 372.531C304.105 366.847 308.649 363.761 315.298 364.532C318.969 364.944 322.665 364.918 326.336 365.227C327.256 365.413 328.145 365.725 328.98 366.153Z" fill="#2B4372" fill-opacity="0.1"/>
<path d="M324.18 584.878L326.029 586.729C319.739 588.864 313.398 590.896 307.16 593.159C289.472 599.487 271.066 603.062 252.89 607.563C250.468 608.321 247.86 608.224 245.501 607.287C243.141 606.351 241.174 604.633 239.926 602.419C237.875 598.347 236.158 594.115 234.792 589.764C238.72 585.932 242.673 582.048 246.55 578.267C252.642 572.249 258.692 566.196 264.699 560.109C265.598 559.183 266.394 558.154 267.267 557.203C269.053 558.863 270.607 560.758 271.887 562.835C275.071 570.243 277.818 577.856 280.821 585.341C283.157 591.153 286.88 593.057 292.861 591.642L322.204 584.8C322.863 584.748 323.527 584.774 324.18 584.878Z" fill="#2B4372" fill-opacity="0.1"/>
<path d="M541.438 137.269C533.189 128.936 524.94 120.611 516.691 112.295C516.007 111.725 515.267 111.225 514.483 110.803C512.224 106.019 509.939 101.261 507.757 96.4766C507.446 95.5158 507.24 94.5241 507.141 93.5188L519.977 80.6587C523.674 81.9961 527.524 83.0764 531.067 84.7482C532.538 85.7578 533.667 87.1936 534.301 88.8634C538.871 98.2513 543.056 107.845 547.856 117.156C552.169 125.772 548.806 132.768 541.438 137.269Z" fill="#2B4372" fill-opacity="0.1"/>
<path d="M230.582 153.575L231.891 152.186L233.97 153.575C235.545 154.782 237.21 155.866 238.95 156.816C240.876 157.691 242.621 157.665 243.648 155.041C244.702 152.029 246.144 149.167 247.936 146.528C249.374 144.538 251.352 143.003 253.635 142.104C266.65 137.706 279.794 133.642 292.886 129.45C294.238 128.929 295.688 128.709 297.133 128.807C298.579 128.905 299.985 129.317 301.255 130.016C305.85 132.588 310.548 134.928 315.221 137.372L319.405 141.976C316.273 140.587 313.116 139.249 310.009 137.757C306.903 136.266 303.745 134.697 300.665 133.076C299.697 132.47 298.607 132.087 297.474 131.954C296.34 131.821 295.191 131.943 294.11 132.31C293.029 132.676 292.043 133.279 291.223 134.075C290.403 134.87 289.77 135.838 289.369 136.909C286.443 143.133 283.516 149.332 280.564 155.556C277.612 161.78 273.607 164.352 266.753 163.555C257.562 162.577 248.389 161.386 239.233 159.98C237.353 159.78 235.56 159.081 234.039 157.955C232.518 156.829 231.325 155.317 230.582 153.575Z" fill="#2B4372" fill-opacity="0.1"/>
<path d="M255.201 344.625L253.994 345.86C253.429 343.982 253.044 342.053 252.326 340.253C251.093 337.192 249.502 336.369 246.909 338.169C240.748 342.49 234.869 342.156 228.143 339.172C219.517 335.314 210.378 332.665 201.65 329.039C199.144 327.908 197.078 325.983 195.771 323.56C190.637 313.581 186.17 303.395 181.446 293.262C180.231 290.778 179.889 287.955 180.476 285.251C181.063 282.548 182.545 280.123 184.681 278.37C189.533 274.074 194.411 269.779 199.16 265.355C200.6 264.037 201.677 262.37 202.289 260.514C202.9 258.659 203.025 256.677 202.651 254.759C201.445 246.76 200.443 238.735 199.263 230.736C198.909 228.991 198.437 227.272 197.851 225.592C201.239 225.386 201.368 225.592 201.83 229.501C202.831 237.423 203.832 245.345 205.116 253.241C205.689 255.991 205.501 258.846 204.574 261.498C203.647 264.149 202.014 266.497 199.853 268.287C195.386 272.248 190.868 276.183 186.427 280.196C184.551 281.583 183.252 283.615 182.778 285.903C182.305 288.19 182.69 290.572 183.86 292.593C188.566 302.624 193.307 312.629 198.082 322.608C198.392 323.514 198.904 324.337 199.579 325.014C200.254 325.692 201.075 326.206 201.978 326.518C202.881 326.831 203.843 326.933 204.792 326.817C205.74 326.701 206.65 326.37 207.452 325.849C212.381 323.457 217.258 320.962 222.136 318.493C228.759 315.15 232.713 315.921 237.898 321.245C242.545 326.055 247.371 330.71 251.966 335.571C254.379 338.118 256.638 340.767 255.201 344.625Z" fill="#2B4372" fill-opacity="0.1"/>
<path d="M445.324 41.0496C455.011 50.8061 464.706 60.5369 474.41 70.242C475.435 71.154 476.506 72.0125 477.619 72.814L480.186 75.9004L481.367 77.2122C481.367 77.4179 481.367 77.7266 481.367 77.778C477.73 79.7611 473.995 81.5553 470.174 83.1535C468.444 83.7161 466.586 83.7473 464.839 83.2431C463.091 82.7389 461.534 81.7224 460.367 80.3243C455.079 75.1803 449.791 69.7276 444.58 64.3521C442.935 62.6766 441.766 60.5923 441.193 58.3139C440.62 56.0354 440.664 53.6451 441.319 51.3891C442.089 48.1998 443.245 45.0876 444.272 41.9755C444.426 41.5897 444.965 41.3582 445.324 41.0496Z" fill="#2B4372" fill-opacity="0.1"/>
<path d="M257.665 518.288C254.251 518.288 250.785 518.442 247.397 518.031C223.938 515.021 201.663 505.954 182.756 491.719C158.298 473.629 139.139 449.29 127.28 421.245C121.24 407.249 116.929 392.565 114.444 377.521C114.444 377.341 114.444 377.135 115.009 376.827C115.368 378.447 115.727 380.067 116.112 381.688C116.498 383.308 116.857 385.006 117.268 386.652C126.612 423.766 145.173 455.248 174.49 480.042C193.26 496.323 216.073 507.218 240.517 511.575C243.751 512.141 247.037 512.501 250.272 513.041C251.316 513.269 252.344 513.561 253.352 513.915L257.665 518.288Z" fill="#2B4372" fill-opacity="0.1"/>
<path d="M298.997 84.8766C313.552 73.5597 330.367 67.8756 348.312 65.1235C365.459 62.3921 383.023 64.3286 399.167 70.7305C419.768 78.5735 437.186 93.0484 448.687 111.883C453.257 119.316 456.697 127.469 460.573 135.314C461.038 136.52 461.382 137.769 461.6 139.043L459.213 141.461C455.49 133.745 452.179 125.849 447.943 118.467C439.003 102.892 426.083 89.9844 410.514 81.07C394.205 71.496 375.488 66.8346 356.604 67.6441C336.907 68.4813 317.746 74.3228 300.922 84.6194C300.31 84.9126 299.675 85.1535 299.022 85.3396L298.997 84.8766Z" fill="#2B4372" fill-opacity="0.1"/>
<path d="M470.508 352.392L494.947 327.958C496.847 326.055 498.695 324.152 500.569 322.223H501.083L511.993 333.642C510.093 336.369 508.322 339.172 506.268 341.77C502.751 346.22 499.08 350.566 495.461 354.939C494.348 356.498 492.762 357.656 490.94 358.24C489.117 358.824 487.155 358.803 485.346 358.179C480.289 356.585 475.437 354.373 470.508 352.392Z" fill="#2B4372" fill-opacity="0.1"/>
<path d="M319.405 141.976L315.221 137.372C320.15 139.686 325.104 141.975 330.008 144.316C332.267 145.371 334.474 146.554 336.708 147.634C339.9 149.001 342.509 151.454 344.073 154.559C345.637 157.665 346.056 161.224 345.256 164.609C343.998 171.605 342.843 178.601 341.483 185.546C340.918 188.29 341.12 191.137 342.067 193.774C343.013 196.41 344.668 198.734 346.848 200.489C353.677 206.893 360.223 213.581 366.898 220.139C367.567 220.947 368.466 221.53 369.476 221.81C370.485 222.091 371.556 222.055 372.545 221.708C380.657 219.136 388.872 216.564 397.036 213.992C399.701 212.897 402.68 212.853 405.376 213.87C408.071 214.886 410.283 216.887 411.566 219.47C418.626 231.636 425.608 243.853 432.745 255.967C433.9 257.948 434.362 259.543 432.309 261.394C428.663 255.067 424.941 248.766 421.321 242.387C417.291 235.288 413.26 228.138 409.333 220.962C408.091 218.915 406.148 217.389 403.867 216.67C401.586 215.951 399.122 216.087 396.933 217.053C391.799 220.011 386.228 222.428 380.837 224.975C378.361 226.321 375.511 226.814 372.727 226.377C369.944 225.94 367.381 224.598 365.434 222.557C360.172 217.413 355.166 212.269 350.031 207.125C347.464 204.707 344.538 202.752 342.33 200.129C337.735 194.831 337.606 188.581 339.044 182.125C340.481 175.669 341.483 169.573 342.51 163.246C342.982 160.725 342.59 158.118 341.397 155.849C340.204 153.58 338.28 151.781 335.938 150.746C330.29 147.84 324.873 144.882 319.405 141.976Z" fill="#2B4372" fill-opacity="0.1"/>
<path d="M336.811 159.517C335.117 159.004 333.454 158.395 331.83 157.691C321.1 152.375 310.403 147.017 299.741 141.615C295.967 139.712 293.914 140.432 292.039 144.187C289.113 150.515 286.186 156.867 283.157 163.169C281.64 166.394 279.098 169.024 275.931 170.648C272.763 172.272 269.147 172.798 265.649 172.145C257.255 170.911 248.809 170.011 240.388 168.982C237.562 168.612 234.859 167.594 232.49 166.005C230.121 164.417 228.15 162.302 226.731 159.825C226.457 159.147 226.318 158.422 226.32 157.691L227.553 156.405C233.2 163.786 241.698 163.709 249.707 164.815C255.535 165.612 261.388 166.333 267.215 167.078C270.573 167.332 273.928 166.535 276.815 164.799C279.703 163.062 281.981 160.471 283.337 157.382C286.392 151.003 289.344 144.522 292.399 138.169C292.58 137.534 292.907 136.952 293.355 136.468C293.803 135.984 294.358 135.614 294.976 135.385C295.594 135.157 296.257 135.079 296.911 135.156C297.565 135.233 298.191 135.463 298.74 135.828C308.033 140.407 317.275 145.088 326.542 149.769C327.595 150.309 328.544 151.029 329.546 151.646L336.811 159.517Z" fill="#2B4372" fill-opacity="0.1"/>
<path d="M74.9863 220.705C75.2398 218.749 75.7312 216.832 76.4496 214.995C82.6164 203.927 89.9862 193.576 98.4244 184.131C101.582 180.556 103.559 180.35 107.384 183.154C113.237 187.5 119.039 191.898 124.892 196.245C127.614 198.122 130.842 199.127 134.146 199.127C137.451 199.127 140.678 198.122 143.401 196.245C148.689 192.49 154.106 188.915 159.471 185.288C164.837 181.662 170.741 178.344 172.307 171.091C172.611 174.198 172.053 177.329 170.694 180.138C169.335 182.947 167.228 185.326 164.606 187.012C157.546 191.718 150.64 196.657 143.606 201.415C140.736 203.549 137.232 204.652 133.659 204.545C130.086 204.437 126.654 203.126 123.916 200.823L107.589 188.606C103.328 185.443 101.813 185.52 98.2447 189.532C89.7705 199.19 82.3361 209.717 76.0646 220.937L74.9863 220.705Z" fill="#2B4372" fill-opacity="0.1"/>
<path d="M281.026 103.575L298.996 121.579C289.601 121.991 281.18 126.132 272.375 128.678C267.241 130.196 261.978 131.97 255.997 133.822C262.842 122.584 271.272 112.397 281.026 103.575Z" fill="#2B4372" fill-opacity="0.1"/>
<path d="M335.245 194.651C337.042 201.544 342.946 204.939 347.464 209.465C351.982 213.992 356.86 218.416 361.224 223.2C367.462 230.119 374.342 231.739 382.66 227.727C387.794 225.155 392.929 222.84 398.063 220.448C398.706 220.005 399.44 219.71 400.211 219.586C400.982 219.462 401.771 219.511 402.52 219.73C403.27 219.949 403.961 220.333 404.545 220.853C405.128 221.373 405.588 222.017 405.893 222.737C413.44 235.58 420.928 248.44 428.355 261.317C429.027 262.966 429.484 264.695 429.716 266.461L428.766 266.77C426.507 262.886 424.197 259.054 421.963 255.119C416.829 246.014 411.652 236.9 406.432 227.778C406.116 227.059 405.651 226.414 405.069 225.886C404.487 225.359 403.8 224.961 403.053 224.718C402.307 224.475 401.518 224.393 400.737 224.477C399.957 224.561 399.203 224.81 398.525 225.206C392.929 227.778 387.409 230.582 381.813 233.205C378.52 234.812 374.789 235.279 371.203 234.535C367.617 233.79 364.379 231.875 361.994 229.09C355.731 222.557 349.159 216.23 342.458 210.16C340.205 208.254 338.393 205.879 337.147 203.201C335.902 200.523 335.252 197.605 335.245 194.651Z" fill="#2B4372" fill-opacity="0.1"/>
<path d="M258.795 341.05C255.689 333.334 248.526 328.73 243.392 322.737C241.929 321.091 240.337 319.574 238.745 318.056C236.688 315.762 233.902 314.253 230.861 313.784C227.819 313.315 224.709 313.916 222.059 315.484C216.771 318.056 211.508 320.628 206.271 323.354C205.825 323.688 205.305 323.909 204.756 324C204.206 324.09 203.644 324.046 203.115 323.872C202.586 323.697 202.107 323.398 201.718 322.999C201.329 322.6 201.041 322.113 200.88 321.58C195.951 311.292 191.048 300.824 186.247 290.433C185.691 289.275 185.501 287.975 185.702 286.706C185.904 285.437 186.488 284.261 187.377 283.334C190.149 289.404 192.922 295.602 195.771 301.749C198.159 306.893 200.623 312.038 203.062 317.182C204.679 320.628 206.348 321.194 209.711 319.522C214.974 316.95 220.21 314.198 225.499 311.652C228.137 310.301 231.145 309.854 234.061 310.379C236.977 310.904 239.642 312.372 241.646 314.558C246.781 319.934 252.172 325.206 257.357 330.607C258.579 331.618 259.527 332.921 260.115 334.395C260.703 335.869 260.911 337.468 260.72 339.044L258.795 341.05Z" fill="#2B4372" fill-opacity="0.1"/>
<path d="M257.665 518.288L253.353 513.941C254.457 513.685 255.583 513.53 256.716 513.478C276.518 514.49 296.249 510.417 314.04 501.647C319.739 498.844 325.002 495.166 330.495 491.951C331.753 491.205 333.063 490.613 334.423 489.944L323.025 501.879C304.51 513.465 283.006 519.35 261.182 518.802C259.999 518.719 258.823 518.547 257.665 518.288Z" fill="#2B4372" fill-opacity="0.1"/>
<path d="M511.993 333.746L501.083 322.326C505.241 318.031 509.4 313.761 513.533 309.466C514.432 308.54 515.279 307.588 516.1 306.636C520.156 310.829 524.135 315.561 521.235 321.58C519.155 326.081 515.176 329.733 511.993 333.746Z" fill="#2B4372" fill-opacity="0.1"/>
<path d="M441.833 263.555L440.575 262.218C443.45 256.199 446.556 250.283 449.175 244.213C458.281 223.118 462.191 200.139 460.573 177.212C459.854 167.349 458.134 157.585 455.438 148.071C455.233 147.325 455.156 146.528 455.002 145.731L456.286 144.419C457.624 147.688 458.781 151.028 459.751 154.424C466.8 184.411 464.102 215.871 452.05 244.213C449.483 250.206 446.505 255.942 443.63 261.755C443.117 262.435 442.512 263.041 441.833 263.555Z" fill="#2B4372" fill-opacity="0.1"/>
<path d="M321.741 358.926C322.416 358.658 323.124 358.485 323.846 358.411C328.518 358.591 333.216 358.823 337.889 359.131C341.067 359.189 344.128 360.345 346.556 362.402C348.983 364.459 350.628 367.292 351.212 370.422C352.701 376.098 354.267 381.765 355.91 387.424C355.983 388.097 356.213 388.744 356.581 389.312C356.949 389.881 357.446 390.354 358.031 390.695C358.615 391.035 359.272 391.233 359.947 391.272C360.622 391.312 361.297 391.192 361.917 390.921C372.494 388.221 383.045 385.417 393.981 382.562C392.899 383.641 391.682 384.575 390.361 385.34C379.988 389.734 369.143 392.91 358.041 394.805C355.602 395.268 354.113 393.905 353.445 391.539C351.803 385.597 350.237 379.605 348.311 373.715C345.975 366.204 341.791 363.169 333.858 362.604C330.624 362.372 327.415 361.806 324.18 361.395L321.741 358.926Z" fill="#2B4372" fill-opacity="0.1"/>
<path d="M227.63 156.482L226.397 157.768C225.396 155.787 224.215 153.91 223.394 151.852C221.16 146.297 219.107 140.664 216.925 135.108C214.999 130.17 212.766 129.064 207.657 130.273C196.721 132.845 185.734 135.417 174.798 137.989C173.026 138.579 171.309 139.319 169.663 140.201C168.482 136.549 169.946 133.745 174.31 132.716C185.622 129.99 196.961 127.298 208.325 124.64C209.144 124.318 210.023 124.178 210.902 124.228C211.78 124.278 212.638 124.517 213.415 124.93C214.193 125.343 214.872 125.919 215.407 126.619C215.942 127.319 216.319 128.127 216.514 128.987C219.261 136.06 221.931 143.159 224.729 150.206C225.499 152.392 226.628 154.398 227.63 156.482Z" fill="#2B4372" fill-opacity="0.1"/>
<path d="M323.025 501.878L334.423 489.944C340.507 483.926 346.822 478.139 352.624 471.94C359.92 464.254 365.943 455.45 370.466 445.86C374.368 437.269 377.731 428.396 381.351 419.677C381.479 419.322 381.683 419 381.949 418.733C382.215 418.466 382.537 418.262 382.891 418.133C382.906 418.92 382.828 419.705 382.66 420.474C380.221 427.29 378.09 434.26 375.138 440.844C371.916 448.007 368.273 454.973 364.228 461.703C356.242 474.904 345.708 486.377 333.242 495.448C330.008 497.763 326.439 499.718 323.025 501.878Z" fill="#2B4372" fill-opacity="0.1"/>
<path d="M481.418 77.2892L480.237 75.9775C481.624 75.2059 483.061 74.4857 484.396 73.6626C486.594 72.1074 489.174 71.1846 491.857 70.9942C494.541 70.8037 497.225 71.353 499.619 72.5824C506.14 75.6945 513.046 77.9836 519.797 80.6328L506.961 93.4929C505.704 91.461 504.394 89.4806 503.213 87.3458C501.545 84.0536 500.133 80.6585 498.541 77.3149C498.212 76.4492 497.699 75.6654 497.037 75.0177C496.376 74.37 495.582 73.8737 494.711 73.5632C493.84 73.2526 492.912 73.1352 491.991 73.219C491.07 73.3027 490.178 73.5857 489.376 74.0484C486.835 75.2316 484.114 76.2089 481.418 77.2892Z" fill="#2B4372" fill-opacity="0.1"/>
<path d="M459.289 141.41L461.677 138.992C463.217 144.29 465.22 149.512 466.272 154.913C471.782 183.255 469.028 212.588 458.34 239.404C456.183 244.959 453.205 250.258 450.638 255.659C450.295 256.388 449.826 257.05 449.252 257.614C451.614 251.981 454.155 246.4 456.337 240.69C464.857 219.219 468.037 195.996 465.605 173.02C464.449 162.963 461.574 153.112 459.495 143.159C459.289 142.593 459.289 142.001 459.289 141.41Z" fill="#2B4372" fill-opacity="0.1"/>
<path d="M96.5248 261.857C96.4252 263.589 96.1848 265.309 95.806 267.002C92.8538 276.415 89.5935 285.726 86.7953 295.165C85.7745 298.73 83.6032 301.855 80.6211 304.051C77.6391 306.248 74.0145 307.392 70.3142 307.305C64.2557 307.022 58.1459 307.511 52.0617 307.794C50.5031 308.048 48.9727 308.453 47.4922 309.003C47.4922 307.794 47.0044 306.173 47.4922 305.479C48.5566 304.034 50.091 303.006 51.8307 302.573C58.1972 302.084 64.6664 302.084 70.9816 301.904C74.494 301.921 77.9156 300.787 80.7244 298.674C83.5332 296.561 85.5751 293.585 86.5386 290.201C89.2597 281.636 91.9553 273.097 94.7022 264.481C95.0102 263.478 95.4723 262.526 95.8573 261.549L96.5248 261.857Z" fill="#2B4372" fill-opacity="0.1"/>
<path d="M258.795 341.05L260.694 339.044C260.99 341.323 260.99 343.631 260.694 345.911C258.923 352.547 256.767 359.08 254.739 365.664C254.457 366.331 254.313 367.048 254.315 367.773C254.318 368.497 254.466 369.213 254.751 369.878C255.036 370.544 255.453 371.145 255.976 371.645C256.499 372.145 257.117 372.534 257.794 372.789C266.727 376.955 275.764 381.148 284.62 385.211C286.072 385.735 287.567 386.131 289.087 386.395C287.65 389.584 285.827 390.484 282.618 388.967C273.273 384.774 263.955 380.479 254.636 376.107C253.46 375.522 252.552 374.509 252.098 373.275C251.644 372.041 251.68 370.679 252.197 369.471C253.84 363.735 255.765 358.051 257.177 352.238C257.905 348.539 258.445 344.804 258.795 341.05Z" fill="#2B4372" fill-opacity="0.1"/>
<path d="M459.29 337.758C456.722 341.564 455.079 341.873 451.229 338.992C447.378 336.112 443.373 333.154 439.42 330.299C437.098 328.355 434.182 327.265 431.157 327.209C428.131 327.153 425.177 328.134 422.785 329.99C416.803 333.951 410.899 338.041 404.969 342.053C404.198 342.568 403.351 342.979 402.556 343.442L402.119 342.799C403.608 341.59 405.046 340.227 406.612 339.198C412.876 334.929 419.156 330.702 425.455 326.518C427.81 324.614 430.745 323.576 433.772 323.576C436.799 323.576 439.734 324.614 442.09 326.518C446.3 329.502 450.356 332.742 454.617 335.7C456.094 336.557 457.661 337.247 459.29 337.758Z" fill="#2B4372" fill-opacity="0.1"/>
<path d="M234.843 57.2788L236.152 58.642C236.025 59.2569 235.799 59.8474 235.485 60.391C227.784 69.7788 220.21 79.0896 212.586 88.4517C211.215 90.1223 210.466 92.2177 210.466 94.3802C210.466 96.5427 211.215 98.6381 212.586 100.309C215.718 104.45 218.747 108.668 221.776 112.86C222.264 113.555 222.598 114.352 223.368 115.741C215.975 111.368 212.227 104.861 208.684 98.3797C207.829 96.5372 207.548 94.4791 207.877 92.4741C208.207 90.4691 209.132 88.6102 210.532 87.14C216.257 79.8354 222.162 72.6852 228.04 65.4836C230.222 62.7315 232.533 60.0052 234.843 57.2788Z" fill="#2B4372" fill-opacity="0.1"/>
<path d="M215.41 89.7634C216.309 92.1246 217.391 94.412 218.645 96.605C221.571 101.003 224.883 105.118 227.886 109.465C230.89 113.812 230.761 119.007 229.35 124.897C228.605 123.405 227.835 122.557 227.835 121.708C227.835 115.947 224.344 111.857 221.263 107.588C219.415 105.016 217.515 102.443 215.538 99.8715C212.458 95.9106 212.509 93.0042 215.41 89.7634Z" fill="#2B4372" fill-opacity="0.1"/>
<path d="M93.0336 419.805C93.3823 422.289 93.146 424.82 92.3436 427.196C91.5413 429.572 90.1951 431.727 88.4128 433.488C82.842 439.018 77.0146 444.291 71.1358 449.846C70.688 448.648 70.6101 447.343 70.9123 446.1C71.2144 444.857 71.8826 443.734 72.8301 442.876C76.9376 439.07 80.968 435.16 85.0498 431.405C88.5411 428.113 91.9554 424.795 93.0336 419.805Z" fill="#2B4372" fill-opacity="0.1"/>
<path d="M424.556 495.397C418.729 488.092 412.619 481.019 407.253 473.406C405.38 469.932 404.211 466.121 403.813 462.192C406.817 470.448 413.646 475.901 418.549 482.768C419.884 484.62 421.681 486.189 422.81 488.144C423.873 490.362 424.791 492.647 425.557 494.985L424.556 495.397Z" fill="#2B4372" fill-opacity="0.1"/>
<path d="M204.217 225.772L206.784 226.184C208.119 234.44 209.557 242.413 210.686 250.412C211.099 252.608 211.03 254.868 210.485 257.035C209.939 259.203 208.931 261.225 207.529 262.963C209.916 253.421 205.193 244.522 205.141 235.186C205.141 232.228 204.577 229.244 204.217 225.772Z" fill="#2B4372" fill-opacity="0.1"/>
<path d="M486.655 239.198C487.786 237.623 489.234 236.303 490.905 235.324C492.577 234.345 494.435 233.728 496.359 233.514C502.88 232.794 509.452 232.382 516.178 231.816C515.73 232.949 514.957 233.923 513.956 234.614C512.955 235.306 511.771 235.683 510.555 235.7C506.191 235.957 501.776 236.214 497.437 236.857C493.638 237.397 489.916 238.478 486.655 239.198Z" fill="#2B4372" fill-opacity="0.1"/>
<path d="M301.307 48.6112C303.36 40.1236 301.692 31.533 302 22.891C301.885 21.5438 302.082 20.1881 302.576 18.9299C303.07 17.6717 303.848 16.545 304.849 15.6379C303.129 26.8262 307.956 38.3232 301.307 48.6112Z" fill="#2B4372" fill-opacity="0.1"/>
<path d="M321.742 358.925L324.309 361.497C322.507 361.762 320.687 361.874 318.866 361.832C313.578 361.266 308.392 360.829 303.463 365.073C305.272 362.027 308.111 359.732 311.465 358.604C314.819 357.476 318.465 357.59 321.742 358.925Z" fill="#2B4372" fill-opacity="0.1"/>
<path d="M165.402 528.447C166.3 537.346 163.245 545.577 162.475 554.167H161.628C161.297 552.962 161.149 551.713 161.192 550.464C162.347 543.494 163.759 536.523 164.94 529.553C165.058 529.171 165.213 528.8 165.402 528.447Z" fill="#2B4372" fill-opacity="0.1"/>
<path d="M329.802 575.593L326.953 552.727L328.211 552.573C329.212 560.289 330.213 567.825 331.24 575.464L329.802 575.593Z" fill="#2B4372" fill-opacity="0.1"/>
<path d="M494.229 128.781L509.888 114.481C509.632 117.053 509.606 117.053 503.008 122.685C500.441 124.975 497.694 127.392 495.024 129.733L494.229 128.781Z" fill="#2B4372" fill-opacity="0.1"/>
<path d="M336.811 159.517L329.623 151.801C336.503 154.116 339.506 156.122 338.993 163.529L336.811 159.517Z" fill="#2B4372" fill-opacity="0.1"/>
<path d="M298.996 84.8767V85.3911L279.024 100.823L278.818 100.643C281.386 98.3541 283.645 95.9878 286.212 93.8531C289.575 91.0753 293.092 88.4518 296.48 85.8284C297.274 85.402 298.12 85.0821 298.996 84.8767Z" fill="#2B4372" fill-opacity="0.1"/>
<path d="M459.803 363.092L457.826 365.047C457.518 362.475 457.133 359.903 456.953 357.331C456.953 356.945 457.903 356.096 458.314 356.173C458.724 356.251 459.957 356.919 459.982 357.408C460.034 359.305 459.974 361.203 459.803 363.092Z" fill="#2B4372" fill-opacity="0.1"/>
<path d="M409.384 12.603L399.962 28.6009L398.987 28.0351L408.46 12.0371L409.384 12.603Z" fill="#2B4372" fill-opacity="0.1"/>
</g>
<defs>
<clipPath id="clip0_161_139">
<rect width="561" height="608" fill="white"/>
</clipPath>
</defs>
</svg>
