<svg width="194" height="253" viewBox="0 0 194 253" fill="none" xmlns="http://www.w3.org/2000/svg">
<g clip-path="url(#clip0_19_76)">
<path d="M39.0488 84.9213L42.2066 86.702C42.7841 85.1524 45.1164 84.3562 43.7449 82.2074C43.7337 82.174 43.7303 82.1387 43.735 82.104C43.7396 82.0692 43.7523 82.0358 43.772 82.0062C46.3389 78.9799 43.5239 76.814 42.3149 74.4982C40.0593 70.2177 37.5871 66.0741 35.2097 61.8664C34.8714 61.2671 34.5736 60.6464 33.9781 59.4993L79.1987 88.0075L79.0363 88.3885L63.0124 86.9588C61.2936 86.8047 59.5748 86.6078 57.8516 86.4879C57.2696 86.4494 56.4982 86.3938 56.1147 86.6805C54.1253 88.1188 52.2261 89.6769 50.0742 91.3592L53.1644 93.4994C52.5644 94.3555 51.9464 95.2116 51.3599 96.102C49.393 99.1283 51.0983 102.296 54.8381 102.544C55.8847 102.613 56.9448 102.574 57.9959 102.57C59.8681 102.57 60.8786 103.542 60.7658 105.224C60.4275 110.395 64.1583 113.631 70.8123 112.86C71.304 112.805 71.7146 112.124 72.1657 111.777C73.0679 111.114 73.9702 109.941 74.8724 109.915C80.8679 109.748 86.8768 109.83 93.0301 109.83V121.558H81.8062V128.407H95.1865V133.522H81.9596C81.2919 136.947 81.937 137.764 85.1174 137.803C86.3219 137.803 87.567 137.619 88.7264 137.854C89.8858 138.09 91.3925 138.496 91.8301 139.284C92.597 140.671 91.6903 142.062 90.3099 142.905C88.4151 144.065 86.543 145.302 84.5129 146.201C79.916 148.234 78.3641 151.436 78.91 156.222C80.128 166.778 80.922 177.38 81.937 187.958C82.3475 192.191 81.4272 196.069 78.5671 199.369C77.8476 200.119 76.8534 200.578 75.7882 200.654C71.2048 200.786 66.6169 200.765 62.0335 200.654C61.0989 200.593 60.2162 200.223 59.5388 199.609C57.1433 197.336 56.0877 194.473 56.0606 191.284C56.029 187.149 56.0606 183.009 56.0606 178.87C56.0335 175.137 53.8681 173.087 49.8937 173.053C46.0637 173.019 42.2247 173.104 38.3946 173.001C37.4473 173.001 35.9225 172.625 35.715 172.073C35.3766 171.161 35.5074 169.628 36.1435 168.956C37.2114 167.925 38.539 167.169 40.0006 166.76C43.6953 165.643 47.575 165.048 51.1795 163.721C54.6351 162.467 56.2411 159.783 56.1102 156.093C55.9343 151.252 56.0561 146.398 56.0741 141.54C56.117 140.392 55.8229 139.255 55.2247 138.257C54.6265 137.258 53.7476 136.437 52.6862 135.885C49.8486 134.254 47.5975 134.648 45.6938 137.255C39.8713 145.219 34.0699 153.2 28.2895 161.196C23.2459 168.199 16.258 171.251 7.42053 170.57C6.6446 170.51 5.90927 169.941 5.16492 169.607C5.74687 169.132 6.25212 168.507 6.91978 168.199C12.1844 165.78 15.9783 161.906 18.9287 157.241C23.8008 149.536 28.6323 141.814 33.4233 134.074C36.0217 129.897 33.6714 125.852 28.5782 125.723C26.1918 125.663 23.8053 125.723 21.2745 125.723V98.6746C21.4144 98.5761 21.5452 98.4135 21.6535 98.422C26.7963 98.987 30.1436 96.5686 32.8368 92.6947C34.6458 90.0279 36.8698 87.5923 39.0488 84.9213ZM40.542 123.797C40.5069 124.655 40.7408 125.503 41.2141 126.235C41.6873 126.967 42.3786 127.549 43.2006 127.908C44.0226 128.267 44.9382 128.386 45.8318 128.251C46.7254 128.117 47.5567 127.733 48.2207 127.15C48.8846 126.567 49.3514 125.81 49.5618 124.975C49.7723 124.14 49.7171 123.264 49.4031 122.459C49.0892 121.654 48.5306 120.955 47.7981 120.451C47.0655 119.947 46.192 119.661 45.2878 119.628C44.6864 119.604 44.086 119.692 43.521 119.889C42.9559 120.086 42.4374 120.387 41.9952 120.774C41.5529 121.161 41.1957 121.628 40.944 122.147C40.6923 122.665 40.5511 123.226 40.5284 123.797H40.542ZM72.495 187.281C72.4843 186.503 72.2305 185.745 71.7657 185.103C71.301 184.461 70.6462 183.964 69.8841 183.676C69.122 183.387 68.2867 183.319 67.4839 183.481C66.6811 183.642 65.9469 184.026 65.3739 184.583C64.8009 185.141 64.4149 185.847 64.2648 186.612C64.1146 187.378 64.207 188.168 64.5303 188.884C64.8535 189.6 65.3931 190.209 66.0809 190.633C66.7687 191.058 67.5737 191.28 68.3943 191.271C69.4882 191.24 70.5264 190.806 71.2892 190.061C72.052 189.317 72.4796 188.32 72.4815 187.281H72.495ZM73.4198 130.821C73.4251 130.044 73.1877 129.283 72.7376 128.634C72.2875 127.985 71.6448 127.476 70.8906 127.173C70.1364 126.87 69.3046 126.786 68.5 126.931C67.6954 127.076 66.9541 127.444 66.3697 127.989C65.7853 128.533 65.3839 129.23 65.2161 129.99C65.0484 130.751 65.1219 131.542 65.4272 132.263C65.7326 132.984 66.2562 133.603 66.932 134.042C67.6078 134.481 68.4054 134.72 69.2244 134.729C70.323 134.731 71.3779 134.321 72.1606 133.59C72.9433 132.858 73.3909 131.864 73.4063 130.821H73.4198Z" fill="#E1E1E1"/>
<path d="M65.4711 211.47H74.2364C74.2364 212.326 74.1732 213.136 74.2364 213.94C74.6244 218.332 74.4484 222.861 75.5627 227.081C79.0409 240.304 92.5971 247.123 106.717 243.168C115.37 240.741 121.979 235.69 127.108 228.781C133.523 220.134 136.997 210.285 139.906 200.221C141.751 193.835 143.186 187.328 145.374 181.053C148.803 171.234 154.211 162.476 162.634 155.674C171.656 148.376 182.483 147.241 192.119 152.438C192.44 152.609 192.742 152.814 193.306 153.161C191.781 155.55 190.288 157.895 188.718 160.348C188.19 160.143 187.716 159.997 187.283 159.779C181.635 156.924 176.181 157.3 170.885 160.609C166.662 163.25 163.496 166.846 160.726 170.788C155.817 177.77 153.057 185.535 151.058 193.659C148.392 204.562 145.239 215.34 139.875 225.395C134.191 236.058 126.449 244.837 114.571 249.627C103.122 254.25 91.7445 254.485 80.9175 248.026C71.3267 242.299 66.6079 233.631 65.5433 223.139C65.1463 219.351 65.4711 215.498 65.4711 211.47Z" fill="#E1E1E1"/>
<path d="M95.0197 18.6973L112.69 29.8266L75.1657 83.4915L57.5043 72.3621C70.0094 54.4824 82.4378 36.6968 95.0197 18.6973Z" fill="#E1E1E1"/>
<path d="M83.6152 11.5189L46.0999 65.1709L34.6233 57.954L72.1657 4.31482L83.6152 11.5189Z" fill="#E1E1E1"/>
<path d="M115.221 31.4147L118.586 33.5549C106.077 51.4304 93.6076 69.2459 81.0529 87.1941L77.7101 85.0924L115.221 31.4147Z" fill="#E1E1E1"/>
<path d="M18.8926 123.805H8.99048V100.262H18.8926V123.805Z" fill="#E1E1E1"/>
<path d="M90.17 15.6154L93.1249 17.5501L55.6456 71.1594L52.6366 69.3016L90.17 15.6154Z" fill="#E1E1E1"/>
<path d="M74.074 -0.00854492C74.7991 0.303537 75.5067 0.650716 76.1943 1.03162C90.8889 10.269 105.579 19.5149 120.264 28.7694C120.391 28.8464 120.594 28.8892 120.634 28.9962C120.995 29.8823 121.329 30.7769 121.667 31.6716C120.729 31.6716 119.579 32.0054 118.889 31.6116C115.862 29.8994 112.97 27.9775 110.033 26.1283C98.2798 18.7316 86.5295 11.3334 74.7823 3.93381C74.1289 3.58691 73.5393 3.14165 73.0364 2.61541C72.8797 2.3862 72.7754 2.12831 72.7303 1.85843C72.6852 1.58856 72.7004 1.31271 72.7748 1.04874C72.9281 0.633533 73.5778 0.376702 74.074 -0.00854492Z" fill="#E1E1E1"/>
<path d="M63.7794 202.849H74.7282V208.979H63.7794V202.849Z" fill="#E1E1E1"/>
<path d="M98.7323 115.565C98.7323 116.486 98.6782 117.41 98.7323 118.326C98.8271 119.636 98.385 120.278 96.8647 120.278C95.4166 120.278 94.8346 119.786 94.8843 118.412C94.9519 116.503 94.9339 114.589 94.8843 112.68C94.8527 111.396 95.2271 110.703 96.7745 110.716C98.2271 110.716 98.8271 111.212 98.7233 112.59C98.6737 113.571 98.7323 114.564 98.7323 115.565Z" fill="#E1E1E1"/>
<path d="M97.6091 134.725V127.238C100.338 126.661 100.478 126.755 100.492 129.079C100.492 130.838 100.492 132.598 100.492 134.597L97.6091 134.725Z" fill="#E1E1E1"/>
<path d="M6.13943 106.183C2.87781 106.516 0.811665 105.172 0.725952 102.578H6.13943V106.183Z" fill="#E1E1E1"/>
<path d="M6.17093 121.498H0.87475C0.558964 118.986 2.80556 117.427 6.17093 117.843V121.498Z" fill="#E1E1E1"/>
<path d="M6.27017 109.791V114.38L5.6792 114.551C5.46266 114.05 5.06567 113.549 5.06567 113.053C5.06567 111.889 5.25515 110.724 5.37244 109.556L6.27017 109.791Z" fill="#E1E1E1"/>
<path d="M45.0848 121.156C45.8753 121.166 46.6293 121.473 47.1815 122.01C47.7337 122.547 48.0391 123.269 48.0307 124.019C47.9991 125.56 46.5781 126.905 44.9766 126.768C43.2623 126.622 42.2698 125.65 42.1345 124.019C42.1285 123.647 42.2003 123.278 42.3456 122.932C42.4909 122.586 42.7069 122.271 42.9812 122.005C43.2555 121.738 43.5825 121.526 43.9436 121.381C44.3046 121.235 44.6925 121.159 45.0848 121.156Z" fill="#E1E1E1"/>
<path d="M65.6876 186.464C66.4004 186.036 67.3838 185.03 68.453 184.94C70.0861 184.799 71.0515 185.967 70.9252 187.572C70.8079 189.058 69.8289 189.922 68.2184 189.854C66.5087 189.781 65.7553 188.732 65.6876 186.464Z" fill="#E1E1E1"/>
<path d="M66.5944 130.012C67.2756 129.584 68.2094 128.544 69.274 128.403C70.9251 128.189 71.8905 129.344 71.8409 130.941C71.7958 132.444 70.8169 133.338 69.2515 133.325C67.5553 133.312 66.7117 132.311 66.5944 130.012Z" fill="#E1E1E1"/>
</g>
<defs>
<clipPath id="clip0_19_76">
<rect width="192.593" height="253" fill="white" transform="translate(0.703369)"/>
</clipPath>
</defs>
</svg>
