<svg width="405" height="241" viewBox="0 0 405 241" fill="none" xmlns="http://www.w3.org/2000/svg">
<g clip-path="url(#clip0_40_83)">
<path d="M370.101 173.193L367.372 176.281C362.634 176.101 357.965 176.033 353.611 172.854C347.52 168.346 339.827 166.678 333.985 161.719C333.285 161.11 332.473 160.591 331.526 159.915L333.105 156.399C331.977 155.587 330.849 154.753 329.743 154.144C327.232 152.737 325.227 150.577 324.014 147.968C323.182 146.232 321.872 144.77 320.238 143.752C318.603 142.734 316.713 142.202 314.787 142.219C311.912 142.031 309.136 141.101 306.728 139.52C304.321 137.94 302.364 135.763 301.049 133.203C300.196 131.418 298.879 129.895 297.236 128.793C295.593 127.691 293.685 127.049 291.709 126.936C288.703 126.752 285.796 125.789 283.276 124.14C280.756 122.492 278.71 120.215 277.339 117.536C276.496 115.815 275.201 114.356 273.591 113.316C271.981 112.275 270.119 111.692 268.203 111.629C266.068 111.453 263.998 110.814 262.134 109.758C258.096 107.504 254.374 104.641 250.359 102.274C247.742 100.719 246.14 98.8706 247.02 95.5117L228.386 83.3388C224.055 80.4985 219.769 77.5455 215.325 74.8404C213.294 73.6006 211.602 71.1209 208.557 72.4509C208.106 72.6313 207.158 71.7071 206.482 71.2787C203.143 69.0245 199.714 67.0182 196.511 64.7866C195.067 63.7947 192.969 63.434 193.082 60.7515C193.082 59.985 191.187 58.9932 190.014 58.362C188.903 57.8212 187.939 57.0202 187.205 56.0273C186.47 55.0343 185.986 53.8787 185.795 52.6588C185.616 51.8089 185.244 51.0114 184.709 50.3275C184.173 49.6436 183.487 49.0916 182.705 48.7139C168.831 39.6969 155.025 30.68 141.129 21.6631C131.994 15.5856 120.974 13.0006 110.087 14.3819L109.681 18.8903L90.7093 21.5954C86.1976 22.2041 81.6858 22.407 77.174 23.4439C68.9626 25.36 61.2023 22.6099 52.9232 21.8209C52.4494 18.7551 51.9982 15.8472 51.502 12.5785C58.5629 9.8509 64.744 5.45518 72.4366 4.5084C82.8814 3.22349 93.3262 1.62297 103.771 0.202806C104.868 0.134872 105.968 0.134872 107.065 0.202806L108.576 4.08009C112.637 4.08009 116.855 3.78704 121.006 4.08009C130.18 4.87694 139.003 7.9787 146.655 13.097L190.781 41.9061C192.545 41.1904 194.476 40.9864 196.351 41.3173C198.227 41.6482 199.971 42.5008 201.383 43.7771C202.173 44.3632 203.526 44.1378 204.587 44.4083C205.472 44.5955 206.323 44.9147 207.113 45.3551C210.813 47.6093 214.513 50.0438 218.077 52.5686C219.098 53.5196 219.986 54.604 220.716 55.7922C221.072 56.3401 221.505 56.8336 222.002 57.2574C225.273 59.5117 228.612 61.6081 231.906 63.7721C233.417 62.7378 234.605 61.2988 235.336 59.6203C236.066 57.9417 236.308 56.0915 236.034 54.2818C235.65 47.5191 239.372 44.2279 244.087 41.072C248.892 42.5147 253.337 44.0251 256.405 48.1503C256.979 48.7063 257.401 49.4004 257.63 50.1662C257.859 50.9319 257.888 51.7436 257.713 52.5235C256.562 57.032 254.735 60.7966 250.065 62.6901C248.229 63.2644 246.547 64.2489 245.148 65.569C243.749 66.8891 242.669 68.5102 241.989 70.3094L256.833 80.0928C262.157 76.1028 264.999 82.0314 269.579 83.2938C269.827 80.7014 270.143 78.1767 270.256 75.6294C270.459 72.0677 274.993 65.3727 278.151 65.2149C280.596 65.1921 282.995 65.8815 285.054 67.1986C287.465 68.948 289.674 70.9589 291.641 73.1948C292.013 73.7534 292.187 74.4197 292.138 75.0884C291.938 77.442 291.15 79.7077 289.845 81.6772C288.54 83.6467 286.761 85.2569 284.671 86.3596C282.625 87.3691 280.637 88.4904 278.715 89.7184L347.385 134.375L349.934 131.512C350.337 131.629 350.729 131.78 351.107 131.963C354.897 134.42 359.251 136.336 362.386 139.492C366.199 143.459 371.004 145.894 374.929 149.456C377.185 151.462 378.155 154.753 379.689 157.458L377.546 161.696C379.035 162.823 380.524 163.95 382.058 165.1C391.961 172.854 400.105 181.962 403.489 194.405C407.865 210.455 402.925 224.364 392.209 236.446C387.314 242.037 381.155 242.623 375.403 237.979C370.961 234.357 366.977 230.209 363.537 225.626C354.874 214.175 346.821 202.295 338.203 190.798C334.368 185.704 313.682 155.226 277.858 134.217C270.933 130.132 263.717 126.56 256.269 123.532C255.638 123.456 255.032 123.236 254.5 122.888C253.968 122.54 253.523 122.074 253.201 121.526C252.951 121.106 252.809 120.63 252.789 120.142C252.77 119.654 252.872 119.169 253.088 118.73C253.431 118.25 253.916 117.89 254.474 117.7C255.033 117.51 255.637 117.5 256.201 117.671C256.602 117.793 256.971 118.001 257.284 118.279C265.647 122.043 273.742 126.374 281.513 131.241C300.988 143.472 318.294 158.852 332.721 176.754C344.001 190.911 354.175 205.766 365.048 220.171C368.589 224.847 372.489 229.241 376.711 233.313C381.471 237.821 385.938 237.528 390.021 232.276C392.961 228.466 394.956 224.013 395.842 219.284C396.729 214.555 396.481 209.683 395.119 205.067C391.6 190.843 381.809 181.33 370.101 173.193ZM372.357 169.27C385.735 178.715 396.495 189.829 400.15 206.984C401.842 191.204 388.464 173.531 374.591 165.866L372.357 169.27Z" fill="#E1E1E1"/>
<path d="M24.2733 21.0771C32.4397 22.1816 39.2299 28.3357 47.4414 23.1284L47.9377 24.3232C45.8489 26.4752 43.5852 28.4507 41.17 30.2292C34.267 34.4447 26.8902 34.2869 19.4232 31.7847L-0.022583 25.3602C5.16596 12.2631 26.3488 1.46526 42.4784 11.4515C38.8308 11.072 35.1527 11.7844 31.9113 13.4983C28.6698 15.2121 26.0112 17.8501 24.2733 21.0771Z" fill="#E1E1E1"/>
</g>
<defs>
<clipPath id="clip0_40_83">
<rect width="405" height="241" fill="white"/>
</clipPath>
</defs>
</svg>
