<svg width="198" height="283" viewBox="0 0 198 283" fill="none" xmlns="http://www.w3.org/2000/svg">
<g clip-path="url(#clip0_259_75)">
<path d="M0 127.777C0.0774097 110.495 2.75157 82.817 12.6248 56.1222C17.6635 42.4587 24.5881 29.6663 35.7774 19.0797C45.6295 9.77162 57.4802 3.34379 71.8855 2.3603C91.0198 1.06069 110.224 0.365216 129.415 0.0420679C144.193 -0.21083 155.643 6.25915 164.707 16.354C175.059 27.889 181.139 41.3207 185.27 55.4197C197.398 96.4843 200.918 139.604 195.607 182.087C192.835 204.728 188.141 227.046 177.381 247.826C173.363 255.596 168 262.958 162.223 269.807C158.677 274.043 154.222 277.428 149.187 279.71C144.151 281.991 138.666 283.111 133.138 282.986C112.368 282.817 91.6109 282.115 70.8651 280.878C58.2965 280.176 48.2966 273.987 39.9012 265.796C26.5304 252.736 18.6276 236.994 12.5193 220.471C3.83531 196.895 0.056298 171.669 0 127.777ZM91.1042 59.2132C92.3217 55.2582 93.4758 51.8089 94.4399 48.3245C94.8396 46.8093 95.5552 45.3954 96.5399 44.1751C97.5246 42.9549 98.7562 41.9559 100.154 41.2434C106.051 37.8855 111.639 34.085 117.36 30.4671L116.966 29.8559L98.1907 38.6793C99.1759 36.3119 99.9711 34.366 100.802 32.4271C102.208 28.7553 105.007 25.7846 108.592 24.1587C116.333 20.5338 123.841 16.3961 131.442 12.4692L131.125 11.858L106.495 21.5454L114.686 10.6708C110.464 12.6027 105.404 14.9631 100.302 17.2391C95.0169 19.5925 89.6897 21.8616 84.3836 24.1728L83.7221 23.5475L94.3273 9.01293C91.4699 10.9906 88.8448 13.2835 86.5018 15.8482C78.5709 24.7769 73.497 35.0404 69.3802 45.6902C61.3648 66.4981 57.3113 88.0085 55.3691 109.884C51.8997 148.95 55.1016 187.503 66.9524 225.311C71.1747 238.764 77.1282 251.605 86.8185 262.796C87.9867 264.145 89.3801 265.339 90.6749 266.604C89.9149 264.271 88.4934 262.473 87.2971 260.562C86.8467 259.86 86.4315 258.553 86.8256 258.068C89.9501 254.282 93.2717 250.636 96.8044 246.639C101.822 255.504 106.783 263.499 115.249 269.119C112.434 265.395 109.619 261.665 106.98 258.132L114.172 245.873L113.356 245.388L104.672 254.472C102.146 248.978 99.936 243.892 97.4659 238.918C96.0584 236.108 96.5088 233.945 98.6763 231.584C101.667 228.325 104.306 224.784 107.037 221.363L105.967 220.562L94.5947 231.458C92.8072 225.304 91.3505 219.909 89.6686 214.598C88.9227 212.259 89.2182 210.517 91.0127 208.55C94.2076 205.037 96.9803 201.251 99.9289 197.577C99.4996 197.26 99.0774 196.937 98.6552 196.614L87.9867 207.397C86.8748 201.384 86.2344 196.158 84.8833 191.064C83.6095 186.287 84.7636 182.564 88.4863 179.003C91.3012 176.326 93.4124 173.102 95.8684 170.123L94.1936 168.767L83.2436 179.719C82.6806 172.441 81.998 165.803 81.7728 159.157C81.8477 157.214 82.5626 155.35 83.8066 153.853C87.1915 149.533 90.9283 145.423 94.5313 141.251L93.3069 140.239L82.4343 151.338L81.0832 150.685C81.0832 145.578 81.2028 140.471 81.0339 135.378C80.9495 132.968 81.7376 131.296 83.7503 129.617C88.3597 125.824 92.6313 121.7 97.0436 117.675L96.2484 116.972L81.8362 126.863C81.8362 122.915 81.9558 119.417 81.8362 115.919C81.6321 111.001 83.5603 107.173 87.9234 104.089C91.2872 101.714 94.2569 98.9112 97.4237 96.3049L96.7973 95.6024L82.7228 104.735C83.7362 97.6397 84.5314 91.4858 85.5729 85.3741C85.7629 84.2642 86.7693 83.105 87.7404 82.3042C92.6665 78.2016 97.7333 74.2115 102.744 70.1791L102.258 69.5539L86.6004 78.8128C87.4378 74.9631 88.3245 71.7879 88.7749 68.5494C89.1971 65.5567 90.7031 63.4773 93.3702 61.6298C98.7607 57.8925 103.891 53.8532 109.134 49.9403L108.564 49.2378L91.1042 59.2132ZM80.8932 270.664L81.7517 270.13C70.6469 258.321 64.4542 244.405 59.5281 229.912C51.7871 206.927 48.2685 183.33 46.9314 159.424C44.961 124.299 47.5296 89.4907 57.5295 55.3354C62.1108 39.6628 68.2543 24.517 79.4013 11.4155C79.8433 10.8706 80.2568 10.3031 80.6398 9.71542L79.725 9.13235L66.9665 23.0628L60.1262 9.0621L52.8356 13.8882C49.507 18.9603 46.1995 23.9901 42.6879 29.3431L39.5423 25.1703C39.2469 26.5683 39.3098 28.0181 39.7253 29.3853C40.0279 30.72 40.999 32.2514 40.5697 33.3403C38.4586 38.595 35.9885 43.7372 33.4762 49.287L27.3256 40.3091C27.2553 42.3252 27.3256 44.4116 28.4445 45.8096C33.068 51.542 31.7098 57.3165 29.4227 63.3087C28.2897 66.2873 27.7268 69.4345 26.6923 73.2982L17.762 60.8289L16.8753 61.2013C18.1631 64.0112 18.7543 67.4183 20.8725 69.6312C26.1012 75.0685 25.8689 80.8711 24.2011 87.1936C23.1596 91.1767 22.7936 95.3004 21.9281 100.372C17.4524 94.6541 13.6593 89.8349 9.30324 84.2642C10.9851 91.2891 14.6375 96.4735 19.0498 101.293C20.021 102.353 21.4988 103.618 21.4495 104.749C21.1751 111.437 20.5277 118.096 19.9224 125.753C14.9119 120.098 10.5699 115.216 6.23499 110.299L5.33422 110.861C8.28283 115.076 10.6474 119.789 14.3349 123.414C18.8246 127.833 20.5699 132.406 19.8802 138.244C19.3735 142.55 19.7817 146.948 19.7817 152.146L5.16534 137.569L4.20124 138.23C7.22022 142.115 9.64807 146.561 13.413 149.744C18.508 154.043 21.154 158.56 20.8584 164.939C20.6402 169.983 21.7451 175.076 22.3292 180.836L6.19277 167.749C8.43765 172.455 13.1878 177.492 18.7754 181.876C21.6677 184.138 23.5255 186.463 23.9055 190.067C24.4474 195.167 25.7563 200.204 26.7204 205.269C27.0441 206.92 27.3678 208.564 27.8745 211.128L13.0541 202.698L12.3081 203.541C15.7282 206.119 18.7965 209.273 22.6459 211.128C27.7268 213.572 30.2179 216.93 31.2946 221.834C32.2517 226.196 34.0392 230.404 35.714 235.441L23.047 228.416L22.3433 229.273C26.6501 232.245 30.9709 235.195 35.2496 238.195C36.3333 238.961 37.6422 239.733 38.2263 240.78C41.1749 246.084 43.9265 251.472 46.9173 257.148L38.4163 254.739L37.7548 255.631C46.2109 258.493 53.8345 263.383 59.9573 269.87L47.8462 252.722C55.1016 254.984 61.1537 256.755 67.0931 258.792C68.9201 259.472 70.5942 260.505 72.0192 261.834C75.0945 264.651 77.9445 267.686 80.8932 270.629V270.664ZM178.802 83.927L178.204 84.2852C178.203 83.4825 178.118 82.6821 177.951 81.8968C174.643 71.7106 171.85 61.3488 167.74 51.4296C165.382 45.7534 161.512 40.3091 157.135 35.6515C151.252 29.3993 143.616 29.4555 137.43 35.49C133.713 39.1395 130.603 43.3584 128.219 47.9873C118.796 66.4138 115.348 86.189 113.173 106.133C110.43 130.837 110.666 155.781 113.877 180.429C116.065 197.064 119.042 213.622 126.544 229.09C129.523 235.135 133.413 240.689 138.078 245.557C143.356 251.057 150.555 250.741 156.375 245.62C159.126 243.19 161.829 240.38 163.412 237.275C167.17 229.876 170.52 222.277 173.447 214.514C175.664 208.599 176.895 202.389 178.563 196.312C176.452 201.23 175.115 206.295 173.461 211.282C170.344 220.724 166.797 230.053 159.387 237.605C157.275 239.782 154.292 241.335 151.716 243.168L151.012 242.241C157.501 238.342 161.174 232.554 164.137 226.393C172.244 209.533 175.474 191.655 177.508 173.579C180.013 151.453 180.013 129.116 177.508 106.99C175.622 90.3126 172.68 73.79 165.699 58.1243C161.836 49.4556 157.838 40.562 146.741 36.7825C150.055 37.5342 153.778 38.1875 156.016 40.1334C159.851 43.5265 163.792 47.3762 165.826 51.7316C170.717 62.255 174.531 73.1577 178.802 83.8918V83.927ZM134.123 254.535C130.654 249.133 125.953 243.084 122.68 236.467C114.017 218.989 110.295 200.316 107.691 181.468C104.21 156.272 103.685 130.755 106.129 105.437C107.761 88.4018 110.548 71.535 116.276 55.1528C119.5 45.929 123.68 37.1127 130.154 29.2518C124.735 33.1717 121.414 38.3842 118.711 43.9339C109.598 62.5992 105.932 82.4166 103.764 102.487C101.036 127.664 101.306 153.074 104.566 178.188C107.008 197.05 110.844 215.659 118.838 233.369C122.582 241.658 127.086 249.554 134.123 254.535Z" fill="#E1E1E1"/>
<path d="M61.963 181.7C61.3367 173.973 60.7315 166.758 60.2037 159.572C60.1674 159.226 60.2017 158.877 60.3046 158.544C60.4074 158.212 60.5766 157.905 60.8019 157.64C65.3761 153.425 70.0277 149.21 75.2071 144.517C75.7912 153.024 76.3401 160.674 76.7694 168.325C76.719 168.72 76.5897 169.102 76.3891 169.447C76.1884 169.792 75.9205 170.094 75.6012 170.334C71.3437 173.952 67.0228 177.499 61.963 181.7Z" fill="#E1E1E1"/>
<path d="M66.6709 208.866C65.3339 201.194 64.0883 194.303 62.9975 187.39C62.9901 186.933 63.0776 186.479 63.2544 186.057C63.4312 185.635 63.6936 185.255 64.025 184.939C67.9306 181.04 71.9418 177.211 75.9249 173.397L77.1283 174.001C77.832 178.658 78.0994 183.414 79.338 187.952C80.9425 193.874 79.8588 198.42 73.9123 202.002C71.3929 203.499 69.6196 206 66.6709 208.866Z" fill="#E1E1E1"/>
<path d="M60.8933 107.088C61.8926 99.8876 62.7934 93.3614 63.7434 86.8353C63.877 86.3694 64.1842 85.9722 64.6019 85.7253C70.0558 82.2129 75.5378 78.7004 81.991 74.5557C80.6891 82.2831 79.5913 88.8866 78.4372 95.483C78.2963 95.9397 77.9903 96.3279 77.5786 96.5718C72.3007 99.9227 67.0087 103.239 60.8933 107.088Z" fill="#E1E1E1"/>
<path d="M83.708 255.806C80.8228 249.365 78.1557 243.478 75.5941 237.542C75.4995 237.214 75.4859 236.868 75.5545 236.534C75.6232 236.2 75.772 235.888 75.9882 235.624C79.6265 231.872 83.3632 228.198 87.2478 224.292C89.9501 230.741 92.4483 236.579 94.7847 242.466C94.904 242.889 94.9197 243.335 94.8303 243.765C94.7409 244.195 94.549 244.598 94.271 244.939C91.0761 248.409 87.6771 251.746 83.708 255.806Z" fill="#E1E1E1"/>
<path d="M73.2014 231.76C71.5828 226.098 69.8305 220.162 68.226 214.198C68.1289 213.773 68.1304 213.332 68.2305 212.909C68.3305 212.485 68.5264 212.09 68.8031 211.753C72.6102 207.981 76.5441 204.314 81.0409 200.071C82.9902 207.384 84.6862 213.65 86.2766 219.944C86.3084 220.279 86.2614 220.617 86.1392 220.93C86.017 221.244 85.8231 221.524 85.5728 221.75C81.5616 225.058 77.4941 228.297 73.2014 231.76Z" fill="#E1E1E1"/>
<path d="M75.4603 122.557C75.4603 128.493 75.5025 133.706 75.4181 138.925C75.3837 139.725 75.0408 140.48 74.461 141.033C69.7883 145.037 65.0311 148.964 59.6828 153.418C59.6828 146.913 59.6406 140.92 59.7391 134.935C59.9041 134.129 60.3824 133.422 61.0692 132.968C65.6856 129.568 70.3513 126.245 75.4603 122.557Z" fill="#E1E1E1"/>
<path d="M59.6055 129.491C59.9503 123.562 60.2388 118.146 60.6329 112.729C60.7628 112.03 61.1652 111.411 61.7518 111.008C66.7624 107.496 71.8222 104.054 77.7475 99.9932C77.1493 106.66 76.6497 112.371 76.0797 118.075C76.0797 118.448 75.5237 118.841 75.1297 119.101C70.1684 122.445 65.1579 125.761 59.6055 129.491Z" fill="#E1E1E1"/>
<path d="M68.8171 61.7705C70.4076 56.6985 71.8502 52.0058 73.3773 47.3342C73.6342 46.7763 74.0768 46.3244 74.6299 46.0557C81.1182 42.6907 87.6347 39.3609 94.9605 35.6025C92.8493 40.9204 91.1745 45.2899 89.4011 49.6524C89.1101 50.3158 88.6178 50.8711 87.9936 51.2401C81.8149 54.6753 75.601 58.0543 68.8171 61.7705Z" fill="#E1E1E1"/>
<path d="M87.4941 54.675C85.9178 60.3582 84.6792 64.9806 83.321 69.589C83.0854 70.2606 82.6257 70.831 82.0191 71.2047C76.3893 74.5346 70.6821 77.8012 64.5457 81.3488C65.5238 76.8107 66.3894 72.6097 67.3606 68.4229C67.5244 67.6085 67.9766 66.8804 68.6343 66.3716C74.5808 62.5992 80.5906 58.9322 87.4941 54.675Z" fill="#E1E1E1"/>
<path d="M105.27 18.4124C102.575 22.9013 100.436 26.5051 98.2331 30.0878C97.7233 30.9208 96.9926 31.5967 96.1219 32.0407C89.4224 35.1598 82.6596 38.1806 75.7139 41.3207C77.9587 34.9983 79.711 28.6758 87.9868 25.9852C93.7011 24.1236 98.972 21.2294 105.27 18.4124Z" fill="#E1E1E1"/>
<path d="M26.8823 173.607C32.7936 178.448 37.9871 182.656 43.068 186.955C43.8041 187.545 44.3318 188.355 44.574 189.266C45.9814 196.228 47.2552 203.204 48.7963 211.261C42.3924 206.716 36.7767 202.775 31.2454 198.743C30.6338 198.18 30.2506 197.412 30.1687 196.586C29.0709 189.168 28.0435 181.77 26.8823 173.607Z" fill="#E1E1E1"/>
<path d="M43.6098 183.506C37.8885 178.413 32.5965 173.783 27.4241 169.034C26.7433 168.223 26.3719 167.198 26.3755 166.14C25.9674 159.818 25.6718 153.558 25.2988 146.393C29.0145 149.983 31.8575 153.291 35.3269 155.94C39.873 159.41 42.3642 163.267 42.1812 168.802C42.0827 173.502 43.0609 178.23 43.6098 183.506Z" fill="#E1E1E1"/>
<path d="M40.0279 156.741C35.4749 151.957 30.8795 147.194 26.4109 142.353C25.7903 141.654 25.4278 140.765 25.3834 139.831C25.299 133.664 25.3342 127.496 25.3342 121.321L26.3827 121.159C31.0132 125.817 35.6648 130.46 40.2602 135.146C40.6179 135.604 40.8001 136.174 40.7739 136.755C40.7739 143.274 40.7739 149.793 40.7739 156.312L40.0279 156.741Z" fill="#E1E1E1"/>
<path d="M28.2968 94.3662C32.9625 99.6209 37.1778 104.328 41.3227 109.083C41.7617 109.624 41.987 110.306 41.9561 111.001C41.684 117.718 40.9788 124.41 39.8449 131.036C35.3833 125.873 30.612 120.885 26.6501 115.427C25.496 113.846 26.5515 110.91 26.7627 108.606C27.1567 104.082 27.7268 99.5576 28.2968 94.3662Z" fill="#E1E1E1"/>
<path d="M42.1882 106.147C37.6703 100.365 33.8491 95.5251 30.1053 90.6358C29.5618 90.0157 29.264 89.2187 29.2679 88.3948C30.3586 81.974 31.5761 75.5743 32.8498 68.6758C37.0722 74.1763 40.8793 79.1219 44.6372 84.1307C45.0716 84.6756 45.2918 85.36 45.2565 86.0555C44.3416 92.3709 43.3423 98.6934 42.1882 106.147Z" fill="#E1E1E1"/>
<path d="M31.4424 203.288C37.6703 207.13 43.4057 210.559 48.9511 214.169C49.8659 214.76 50.3585 216.059 50.7104 217.127C52.6175 222.796 54.426 228.493 56.5372 235.02C52.526 232.722 49.1762 230.488 45.5169 228.788C38.2333 225.409 34.2573 220.358 33.645 212.926C33.3917 209.835 32.2728 206.8 31.4424 203.288Z" fill="#E1E1E1"/>
<path d="M38.5641 228.191C44.5528 231.451 50.5274 234.697 56.5161 238.026C57.3676 238.49 58.395 239.038 58.7961 239.776C61.611 244.988 64.2148 250.257 67.3675 256.418C60.084 253.706 53.5464 251.296 47.044 248.803C46.3857 248.489 45.8669 247.944 45.5872 247.271C42.9201 241.012 40.3163 234.725 37.6985 228.444L38.5641 228.191Z" fill="#E1E1E1"/>
<path d="M39.4649 45.9712C43.1735 51.8581 46.5022 57.1128 49.7674 62.4166C50.0774 63.152 50.1173 63.973 49.88 64.7348C48.7368 70.1368 47.1986 75.4478 45.2777 80.6253C41.6887 75.0474 37.973 69.5329 34.6233 63.8356C34.0462 62.8662 34.947 61.131 35.327 59.7893C36.6078 55.3776 37.9519 51.0011 39.4649 45.9712Z" fill="#E1E1E1"/>
<path d="M48.0293 26.5754C50.9216 31.9425 53.6591 36.8319 56.1644 41.7985C56.6271 42.8272 56.6948 43.9899 56.3544 45.0651C54.8836 49.5259 53.2017 53.9306 51.1468 59.5857C47.7197 53.0735 44.5599 47.4325 41.8436 41.6229C41.3369 40.534 42.4488 38.7356 43.054 37.3517C44.6092 33.7901 46.2981 30.2916 48.0293 26.5754Z" fill="#E1E1E1"/>
<path d="M57.8884 12.0549C60.3163 16.867 62.5471 21.1874 64.623 25.5358C64.7687 25.9476 64.8295 26.3845 64.8017 26.8203C64.7739 27.2561 64.6581 27.6818 64.4612 28.0718C62.6174 31.795 60.6259 35.455 58.0925 40.2601C55.4324 33.9376 52.7723 28.4722 50.9919 22.782C50.5274 21.3138 52.7371 19.0939 53.9053 17.3166C55.0735 15.5393 56.3684 14.043 57.8884 12.0549Z" fill="#E1E1E1"/>
<path d="M114.693 140.26C115.129 117.218 116.664 94.4434 124.25 72.4483C126.548 65.9302 129.779 59.7782 133.841 54.1835C138.859 47.2358 146.079 47.4676 151.772 54.1062C158.627 62.1006 161.561 71.6264 163.975 81.2154C170.632 107.671 171.66 134.486 169.809 161.468C168.641 178.56 166.29 195.476 159.957 211.725C158.041 216.744 155.436 221.472 152.216 225.775C146.396 233.432 139.141 233.221 133.011 225.592C127.585 218.834 124.862 210.987 122.582 203.042C116.621 182.389 115.045 161.3 114.693 140.26ZM152.779 140.26C152.926 139.902 153.067 139.558 153.208 139.185L167.008 139.965V133.172C166.107 133.123 165.467 133.024 164.841 133.06C151.702 133.853 148.655 129.006 150.147 117.394C150.253 116.817 150.401 116.249 150.59 115.694C153.363 105.95 155.77 96.1154 159.035 86.5123C160.872 81.1382 159.563 76.5509 157.24 71.1417C153.37 85.1916 151.568 99.0729 146.551 112.315C145.857 110.427 145.616 108.404 145.847 106.407C147.444 91.3876 149.07 76.3682 150.808 61.3559C151.231 57.7662 149.267 55.8343 145.657 54.1272C145.249 58.6935 144.862 62.8522 144.524 67.011C143.44 80.3163 142.413 93.6285 141.252 106.927C141.083 108.838 140.182 110.706 139.626 112.589L138.043 112.659C132.272 102.684 129.281 91.5843 123.813 80.527C122.983 83.9692 122.582 86.4139 121.787 88.7462C120.513 92.4624 121.308 95.722 123.37 99.0729C126.586 104.292 129.485 109.666 132.335 115.055C133.314 116.895 133.743 118.96 134.447 120.927L133.103 121.574C130.844 119.396 128.535 117.253 126.333 115.027C124.13 112.8 121.822 110.299 119.063 107.39C118.711 110.474 118.62 112.891 118.127 115.237C117.635 117.584 118.31 119.41 120.393 121.11C123.704 123.711 126.794 126.58 129.633 129.688C136.952 138.04 135.263 151.064 125.165 156.151C118.268 159.621 117.008 163.639 118.669 169.61C118.718 169.786 118.944 169.926 119.26 170.264L133.117 159.347L134.454 160.436C131.737 164.911 129.528 169.723 126.199 173.783C120.956 180.169 119.661 186.744 122.617 194.106C122.687 194.275 122.906 194.394 123.264 194.739C123.75 194.001 124.25 193.334 124.623 192.666C128.036 186.344 131.259 179.951 134.911 173.755C136.1 171.732 138.388 170.243 140.175 168.486C141.582 170.594 143.637 172.575 144.165 174.844C145.671 181.244 146.53 187.763 147.649 194.233C149.056 202.499 150.482 210.767 151.927 219.038C154.334 216.389 156.389 213.931 155.608 210.32C152.715 196.895 150.013 183.435 147.297 169.983C147.072 168.482 146.936 166.969 146.889 165.452L148.479 165.185C152.166 177.008 155.861 188.838 159.739 201.258C161.427 197.12 162.406 193.706 160.984 189.849C158.704 183.639 156.713 177.324 154.897 170.994C153.081 164.665 151.505 158.286 150.097 151.879C149.844 150.727 150.506 148.711 151.456 148.24C152.406 147.77 154.418 148.486 155.636 149.154C159.26 151.156 162.722 153.369 166.354 155.589C168.324 148.845 167.958 148.121 161.617 145.374C159.619 144.503 157.606 143.653 155.72 142.613C154.667 141.921 153.682 141.131 152.779 140.253V140.26Z" fill="#E1E1E1"/>
<path d="M150.182 140.183C149.133 146.035 148.197 151.781 146.98 157.471C146.755 158.546 145.418 159.431 144.587 160.408C143.63 159.41 142.131 158.546 141.772 157.401C138.423 145.901 138.254 134.359 141.899 122.88C142.23 121.834 143.574 121.04 144.454 120.134C145.298 121.068 146.684 121.911 146.91 122.944C148.197 128.648 149.126 134.387 150.182 140.183ZM145.91 130.797C142.392 134.71 142.596 147.025 146.248 149.688C149.373 144.868 149.19 134.507 145.91 130.797Z" fill="#E1E1E1"/>
</g>
<defs>
<clipPath id="clip0_259_75">
<rect width="198" height="283" fill="white"/>
</clipPath>
</defs>
</svg>
