<svg width="119" height="71" viewBox="0 0 119 71" fill="none" xmlns="http://www.w3.org/2000/svg">
<g clip-path="url(#clip0_241_32)">
<path d="M52.8893 20.5467L54.8366 21.7355C54.6153 23.1188 54.375 24.4117 54.2111 25.7156C53.938 27.9069 53.9762 30.0983 54.6973 32.2102C55.4401 34.3879 56.8167 36.0451 58.9579 36.9326C60.8697 37.7297 62.0496 37.2942 63.0738 35.5C63.3945 34.9478 63.6686 34.3696 63.8931 33.7715C65.1677 30.3019 66.4331 26.8323 67.6895 23.3626C67.9189 22.7216 68.0801 22.056 68.2576 21.3959C68.9704 18.7114 68.4679 16.29 66.4687 14.3369C64.6825 12.5921 62.8061 10.9266 60.897 9.31326C59.8046 8.38193 58.551 7.62318 57.2974 6.73842C58.0047 6.00705 58.8023 6.22892 59.5124 6.30836C60.5066 6.41943 61.4914 6.60252 62.4592 6.8562C67.6949 8.2258 72.917 9.63648 78.1554 10.9896C79.2178 11.2636 79.8542 11.8525 80.3403 12.8112C84.1294 20.0883 87.9393 27.3554 91.7702 34.6125C93.1904 37.317 94.6107 40.0206 96.0309 42.7233C96.1538 42.9616 96.2603 43.2081 96.4406 43.5916L92.5732 46.5225C91.7757 45.7008 91.0738 44.879 90.2571 44.175C89.0962 43.1214 87.584 42.5419 86.0184 42.5507C84.9647 42.5779 83.9431 42.9195 83.084 43.5318C82.2249 44.1441 81.5673 44.9994 81.1951 45.9884C81.0504 46.3664 80.9438 46.7608 80.7745 47.2895L79.6384 46.843C77.2595 45.9172 75.0145 46.0815 72.9361 47.6648C72.3177 48.1336 71.8038 48.7269 71.4275 49.4067C71.0512 50.0865 70.8209 50.8376 70.7511 51.6119C70.702 52.0091 70.65 52.4063 70.5872 52.9295C68.6481 52.8062 66.9002 53.1349 65.6411 54.7045C64.4722 56.159 64.0625 57.8546 64.1526 59.8788C61.9021 59.3063 59.892 59.4871 58.3243 61.2293C56.7975 62.9248 56.661 64.9984 56.9587 67.1322C55.5439 68.0992 54.1019 68.7237 52.4659 68.7758C50.1799 68.8661 48.6231 67.5513 48.1971 65.0915C49.1912 64.4122 50.2291 63.6891 51.2806 62.9878C54.0809 61.116 56.884 59.2488 59.6899 57.3862C59.9618 57.2199 60.2154 57.0253 60.4464 56.8055C60.7933 56.4466 60.9926 55.9536 60.572 55.5975C60.2373 55.3291 59.8141 55.1971 59.3867 55.2277C59.0207 55.2688 58.6848 55.6139 58.3434 55.8385C54.629 58.3038 50.9255 60.7992 47.1975 63.2508C45.4222 64.4177 43.4749 64.9601 41.3555 64.4341C40.335 64.1709 39.4227 63.5932 38.747 62.7823C38.0713 61.9714 37.6663 60.9684 37.5892 59.9144C37.5435 59.5552 37.6088 59.1905 37.7764 58.8697C37.9439 58.5488 38.2055 58.2872 38.526 58.1203C42.6064 55.6303 46.6539 53.0884 50.7152 50.5628C51.1768 50.2752 51.6575 50.015 52.0972 49.6863C52.5915 49.3247 53.0285 48.8947 52.6434 48.1989C52.3403 47.6511 51.8487 47.5826 51.1003 47.9524C50.7344 48.1332 50.3875 48.3578 50.0406 48.5742L37.5155 56.3645C36.352 57.0876 35.1639 57.7669 33.7519 57.8601C30.7476 58.0573 28.8877 55.5427 29.9283 52.7021C30.4745 51.1655 31.6079 50.1136 32.9326 49.2781C35.8658 47.4401 38.8182 45.6405 41.7624 43.8244C43.0807 43.0118 44.3971 42.1973 45.7117 41.381C45.9848 41.2139 46.3399 41.0742 46.471 40.8332C46.6348 40.5182 46.766 40.0114 46.6239 39.7567C46.5125 39.6014 46.3661 39.4746 46.1967 39.3866C46.0273 39.2985 45.8397 39.2517 45.6489 39.2499C45.2283 39.2828 44.8132 39.5677 44.4308 39.7978C40.243 42.3544 36.0552 44.9237 31.8674 47.5059C30.0573 48.6625 28.03 49.4344 25.9107 49.7739C24.8369 49.9216 23.7449 49.8621 22.6934 49.5986C21.4534 49.2781 20.7461 48.292 20.6778 46.9608C20.5494 44.3668 21.6883 42.3315 23.6821 40.8469C27.1944 38.2474 30.7831 35.7328 34.361 33.2374C40.233 29.1587 46.135 25.1266 52.0262 21.0781C52.2665 20.9028 52.5479 20.7521 52.8893 20.5467Z" fill="white"/>
<path d="M100.759 47.3169L81.0371 9.76798L99.2704 0L119 37.5489L100.759 47.3169ZM107.314 35.8862C107.453 34.5933 106.183 33.5579 105.009 33.5442C104.697 33.5501 104.39 33.6175 104.105 33.7425C103.82 33.8675 103.561 34.0476 103.346 34.2726C103.13 34.4975 102.96 34.763 102.846 35.0537C102.733 35.3445 102.677 35.6548 102.683 35.967C102.689 36.2793 102.756 36.5873 102.881 36.8735C103.005 37.1597 103.185 37.4184 103.409 37.635C103.634 37.8516 103.898 38.0218 104.188 38.1358C104.478 38.2498 104.787 38.3054 105.099 38.2995C106.412 38.2501 107.317 37.264 107.3 35.8862H107.314Z" fill="white"/>
<path d="M17.0507 47.3087L0.0136719 38.4528L19.7409 0.925842L36.7917 9.78441C30.185 22.3162 23.6684 34.7193 17.0507 47.3087ZM15.1744 35.9328C15.1654 35.3133 14.9161 34.7216 14.4795 34.2833C14.0429 33.845 13.4532 33.5944 12.8355 33.5848C12.2177 33.5752 11.6206 33.8072 11.1706 34.2317C10.7206 34.6563 10.4531 35.2399 10.4249 35.8588C10.4104 36.1775 10.4598 36.4958 10.5702 36.795C10.6807 37.0942 10.8498 37.368 11.0678 37.6004C11.2857 37.8328 11.5479 38.0189 11.8389 38.1477C12.1298 38.2765 12.4436 38.3455 12.7617 38.3504C13.0797 38.3554 13.3955 38.2963 13.6903 38.1765C13.9851 38.0568 14.253 37.879 14.478 37.6535C14.703 37.428 14.8806 37.1596 15.0002 36.864C15.1198 36.5684 15.1791 36.2518 15.1744 35.9328Z" fill="white"/>
<path d="M24.6074 37.3681C24.7713 37.0038 24.9133 36.6313 25.099 36.2725C29.3323 28.2557 33.573 20.2427 37.8208 12.2333C38.0744 11.7604 38.461 11.3727 38.9324 11.1184C41.8575 9.6502 44.8481 8.308 47.7459 6.79048C49.5321 5.85367 51.1544 5.91942 52.9352 6.79048C57.5802 9.03379 61.7525 12.1508 65.2254 15.9723C66.3179 17.1857 66.886 18.6019 66.4299 20.2509C66.0175 21.7383 65.575 23.2229 65.0643 24.6774C64.0947 27.4166 63.0705 30.1558 62.06 32.895C61.8339 33.4892 61.5702 34.0684 61.2707 34.6289C60.9675 35.2042 60.4841 35.3247 59.8805 35.0836C58.8416 34.6926 57.9591 33.971 57.3678 33.0293C56.6221 31.822 56.2024 30.441 56.1498 29.0218C56.0132 26.5319 56.4229 24.1186 57.0538 21.7273C57.1221 21.4534 57.1794 21.1959 57.2258 20.9275C57.2235 20.8342 57.207 20.7418 57.1767 20.6536L52.7249 18.0185C48.7838 21.4233 44.3183 24.0666 40.0986 27.0578C35.4174 30.3695 30.6651 33.5771 25.9429 36.8285C25.5742 37.0833 25.1919 37.3188 24.815 37.5599L24.6074 37.3681Z" fill="white"/>
<path d="M79.1055 60.9307C78.1332 61.0375 77.2701 60.5691 76.6092 59.52C75.6888 58.0573 74.6318 56.6822 73.6896 55.2304C73.3113 54.6656 73.0341 54.039 72.8702 53.3787C72.5042 51.7352 72.8702 50.2752 74.2659 49.2288C75.697 48.1551 77.3138 47.9387 78.8815 48.7933C79.7454 49.283 80.4913 49.9573 81.0665 50.7683C82.1917 52.3625 83.1176 54.0991 84.1772 55.7454C84.3592 56.0039 84.4692 56.3064 84.4961 56.6217C84.523 56.937 84.4657 57.2538 84.3302 57.5396C83.5218 59.5803 81.5663 60.9225 79.1055 60.9307Z" fill="white"/>
<path d="M66.1084 59.0516C66.2613 58.3942 66.3296 57.7012 66.5864 57.0876C67.6488 54.5676 70.3171 54.2306 71.964 56.422C73.0565 57.871 74.0179 59.4214 75.0967 60.8814C75.3369 61.1801 75.4979 61.5349 75.5648 61.9127C75.6316 62.2906 75.6022 62.6793 75.4791 63.0426C74.9683 64.8669 73.8185 65.8366 71.9285 65.7818C70.1724 65.7435 68.6784 65.234 67.799 63.4754C67.1135 62.0647 66.1084 60.7855 66.1084 59.0516Z" fill="white"/>
<path d="M86.3185 55.3126C85.3189 53.6883 84.3275 52.1132 83.3715 50.5163C82.6396 49.3001 82.6587 47.9962 83.1558 46.717C83.8194 45.0077 85.5565 44.1559 87.2525 44.8187C89.5931 45.7336 91.1199 47.4429 91.6716 49.952C91.7075 50.1323 91.724 50.316 91.7208 50.4998C91.6853 52.9679 88.9787 55.4414 86.3185 55.3126Z" fill="white"/>
<path d="M63.2154 71C62.8933 70.9404 62.5764 70.8552 62.2677 70.7452C59.8288 69.7619 58.2966 66.42 59.1269 63.9192C59.7523 62.0236 61.3119 61.2484 63.1991 61.8648C64.6439 62.3386 65.4741 63.4015 66.1788 64.6834C67.1183 66.3981 67.0309 68.3594 65.8155 69.8577C65.2174 70.5973 64.3707 71.0055 63.2154 71Z" fill="white"/>
</g>
<defs>
<clipPath id="clip0_241_32">
<rect width="119" height="71" fill="white"/>
</clipPath>
</defs>
</svg>
