<svg width="90" height="88" viewBox="0 0 90 88" fill="none" xmlns="http://www.w3.org/2000/svg">
<g clip-path="url(#clip0_238_25)">
<path d="M27.4309 87.995C26.2063 83.5072 28.8903 79.8223 33.3439 79.7774C36.3429 79.7525 43.2655 79.7774 43.2655 79.7774C43.2655 79.7774 43.6305 69.8046 43.5555 64.8481C43.3855 53.0503 43.5005 41.2525 43.5005 29.4447V26.5476C39.9267 26.418 36.5778 26.2683 33.2839 27.3703C28.4322 28.9926 23.5705 30.5932 18.6988 32.1722C17.0593 32.7008 15.3999 33.1695 13.6255 33.6981C13.5505 35.6627 14.4502 37.3731 14.965 39.1433C17.4642 47.7647 20.0633 56.3563 22.5475 64.9778C22.6404 65.3572 22.8259 65.7078 23.0875 65.9984C23.3492 66.289 23.6788 66.5105 24.047 66.6432C23.1773 71.2706 18.1589 74.8608 13.6004 75.3545C7.53247 76.0077 1.56448 72.1333 0 66.8477C1.2046 66.5435 1.46949 65.5363 1.79438 64.4293C4.4535 55.3441 7.18758 46.2788 9.88169 37.2035C10.2266 36.0367 10.4815 34.845 10.7764 33.6732C7.41253 32.3966 5.72309 30.5018 5.77807 28.0784C6.50283 27.8191 6.8327 28.4025 7.19758 28.8014C9.22691 31.0054 11.7511 31.2946 14.5051 30.7162C16.3551 30.28 18.1506 29.6394 19.8584 28.8064C24.1909 26.7129 28.4042 24.3824 32.4792 21.8255C35.3882 20.0503 38.4772 18.6441 41.976 18.4198C43.5305 18.32 44.1153 16.9787 43.0406 15.8368C41.7911 14.5054 39.042 12.1718 39.042 12.1718L44.7851 -0.0249329L50.918 12.082C50.918 12.082 48.8187 14.0417 47.7391 15.0739C47.3546 15.3991 47.018 15.7768 46.7394 16.1958C46.6033 16.4038 46.5238 16.6436 46.5088 16.8915C46.4937 17.1395 46.5436 17.3871 46.6536 17.6099C46.7635 17.8328 46.9297 18.0233 47.1358 18.1626C47.3419 18.302 47.5808 18.3855 47.829 18.4048C52.5325 18.5893 56.3262 21.0326 60.1299 23.3413C64.3691 25.9349 68.8005 28.202 73.3855 30.1228C75.176 30.792 77.094 31.0527 78.9986 30.8858C80.6081 30.821 81.6578 29.6491 82.8474 28.7715C83.2872 28.4474 83.5821 27.869 84.4618 28.0435C84.6218 29.6292 83.5771 30.5367 82.6974 31.6238C81.8177 32.7108 80.4482 32.9601 79.1986 33.6482C80.6281 38.3753 82.0626 43.0775 83.4672 47.7897C85.1566 53.4742 86.891 59.1437 88.4305 64.8631C88.7054 65.8953 89.1153 66.4039 89.995 66.6382C88.8753 71.1958 84.1619 74.9057 79.2586 75.3595C73.0456 75.9379 67.4625 71.8989 65.943 66.8826C67.1826 66.3092 67.5774 65.0875 67.9423 63.8309C69.3818 58.8445 70.8164 53.8581 72.2809 48.8717C73.6504 44.2094 75.0599 39.5621 76.4395 34.9098C76.4952 34.6056 76.5154 34.2961 76.4995 33.9873C76.1796 33.2643 75.4698 33.3141 75 33.1994C70.8863 32.2321 67.0026 30.5816 63.004 29.2602C59.88 28.233 56.766 27.0113 53.5071 26.5825C51.3229 26.2933 49.0636 26.5276 46.9194 26.5276C46.4195 27.3005 46.6195 27.9787 46.6195 28.6219C46.6195 42.9163 46.6195 57.2106 46.6195 71.505C46.6195 72.0884 46.6844 73.2353 46.6844 73.2353V79.7575H52.9673C54.2169 79.7575 55.4665 79.7575 56.7161 79.7575C61.0596 79.7974 63.8587 83.5821 62.6891 87.9801L27.4309 87.995ZM12.7207 66.2194H21.6078C18.5038 56.6256 16.0496 47.0666 12.7207 37.7969V66.2194ZM77.3692 37.7969L77.0343 37.7421C74.2303 47.1813 71.4312 56.6256 68.5371 66.379C71.5362 66.379 74.4052 66.4737 77.3642 66.2892L77.3692 37.7969ZM87.4408 66.2643C84.5768 56.6206 81.7677 47.1364 78.9437 37.6523C78.3339 42.4791 78.4738 64.4243 78.8887 66.2643H87.4408ZM11.4312 66.3241V37.7271C8.43219 47.2013 5.36821 56.6355 2.71909 66.3042L11.4312 66.3241Z" fill="white"/>
</g>
<defs>
<clipPath id="clip0_238_25">
<rect width="90" height="88" fill="white"/>
</clipPath>
</defs>
</svg>
