<svg width="95" height="95" viewBox="0 0 95 95" fill="none" xmlns="http://www.w3.org/2000/svg">
<g clip-path="url(#clip0_242_41)">
<path d="M64.1004 79.35C62.7504 79.81 61.6404 80.15 60.5604 80.57C59.8004 80.87 59.0804 81.29 58.0904 81.78L55.1004 94.07H38.7704C37.7704 89.91 36.7704 85.79 35.7704 81.67L30.2704 79.26L19.8804 86.53C17.8804 84.63 15.9904 82.66 13.9404 80.82C11.8904 78.98 9.61037 77.17 7.28037 75.17L14.5703 63.73L11.7104 57.61L0.220369 55.78C-0.189631 50.02 0.110395 44.43 0.0603954 38.78C3.5004 36.37 7.3804 37.5 11.0604 36.59C11.6904 35.59 12.3904 34.51 13.1304 33.42C14.5404 31.36 14.3504 29.48 12.8404 27.47C11.1504 25.22 9.7204 22.77 7.9404 20.06C11.1504 15.48 15.7304 12.13 19.4604 7.30001L29.8804 14.49L35.7404 12.61L38.6604 0.170006C44.0604 -0.179994 49.6603 0.0800058 55.4503 0.0800058L57.7304 11.37C58.5995 12.3247 59.6684 13.076 60.8611 13.5703C62.0537 14.0647 63.3408 14.2899 64.6304 14.23L73.9503 7.61001C78.2303 11.53 82.2904 15.61 86.3404 20.03L79.1004 30.31L82.6604 36.56L93.9704 38.11C94.2802 44.0139 94.1666 49.9324 93.6304 55.82C91.2546 56.362 88.8462 56.7495 86.4204 56.98C82.8504 57.08 80.8903 58.79 80.0703 62.13C79.88 62.6961 79.6563 63.2504 79.4004 63.79L86.3004 74.47L74.1004 86.59L64.1004 79.35ZM19.9604 53.5C20.8004 55.5 21.5303 57.13 22.2603 58.8C26.9303 69.55 36.9303 74.48 47.2603 74.85C53.3103 75.07 58.9304 72.61 63.8404 68.85C67.2378 66.4134 69.8706 63.0591 71.4304 59.18C72.0704 57.51 72.3304 56.01 69.8304 55.08C64.8904 65.92 56.6104 71.78 44.6704 70.67C34.4704 69.67 27.8704 63.61 24.1404 53.82L28.4004 52.32L22.7304 42.69L16.0004 52.47L19.9604 53.5ZM23.7204 39.3C32.1604 25.99 40.0604 21.45 50.7904 23.5C60.1104 25.28 67.9104 32.88 69.4004 40.71C68.2306 41.345 66.9633 41.781 65.6504 42L72.3004 51.26L78.1004 40.85L73.9104 40.35C73.0062 37.9263 71.9439 35.5646 70.7304 33.28C64.1004 22.53 52.9504 17.22 39.9004 20.49C36.3176 21.3561 32.9607 22.976 30.0534 25.2419C27.1461 27.5077 24.7553 30.3673 23.0404 33.63C21.9904 35.54 21.6004 37.29 23.7204 39.3ZM56.1704 40.86C56.2304 35.26 52.3604 31.24 46.9704 31.29C42.1404 31.35 37.1804 35.93 37.5404 40.42C38.0004 46.04 40.9803 50.31 47.2603 50.12C52.4903 49.97 56.1004 46.35 56.1704 40.86ZM34.3604 59.94C41.2304 67.6 52.1703 67.8 59.0103 60.37C58.9403 55.63 57.2304 53.49 52.8504 53.27C49.0497 53.07 45.2411 53.07 41.4404 53.27C37.0404 53.56 35.4604 55.17 34.3604 59.94Z" fill="white"/>
</g>
<defs>
<clipPath id="clip0_242_41">
<rect width="94.09" height="94.08" fill="white"/>
</clipPath>
</defs>
</svg>
