<svg width="92" height="92" viewBox="0 0 92 92" fill="none" xmlns="http://www.w3.org/2000/svg">
<circle cx="46" cy="46" r="46" fill="#2B4372"/>
<path d="M29.36 62.48C27.952 62.48 26.544 62.368 25.136 62.144C23.728 61.952 22.4 61.648 21.152 61.232C19.904 60.784 18.784 60.24 17.792 59.6C17.216 59.216 16.816 58.752 16.592 58.208C16.368 57.664 16.288 57.136 16.352 56.624C16.448 56.08 16.656 55.616 16.976 55.232C17.328 54.816 17.76 54.56 18.272 54.464C18.784 54.368 19.344 54.512 19.952 54.896C21.36 55.728 22.848 56.336 24.416 56.72C25.984 57.104 27.632 57.296 29.36 57.296C31.888 57.296 33.728 56.88 34.88 56.048C36.032 55.184 36.608 54.08 36.608 52.736C36.608 51.616 36.192 50.736 35.36 50.096C34.56 49.456 33.168 48.928 31.184 48.512L25.904 47.408C22.864 46.768 20.592 45.696 19.088 44.192C17.616 42.656 16.88 40.64 16.88 38.144C16.88 36.576 17.2 35.152 17.84 33.872C18.48 32.592 19.376 31.488 20.528 30.56C21.712 29.632 23.104 28.928 24.704 28.448C26.336 27.936 28.128 27.68 30.08 27.68C32 27.68 33.824 27.92 35.552 28.4C37.28 28.88 38.832 29.584 40.208 30.512C40.72 30.864 41.056 31.296 41.216 31.808C41.408 32.32 41.456 32.832 41.36 33.344C41.264 33.824 41.04 34.24 40.688 34.592C40.336 34.944 39.888 35.152 39.344 35.216C38.832 35.28 38.24 35.12 37.568 34.736C36.384 34.064 35.184 33.584 33.968 33.296C32.752 33.008 31.44 32.864 30.032 32.864C28.56 32.864 27.296 33.072 26.24 33.488C25.184 33.904 24.368 34.496 23.792 35.264C23.248 36 22.976 36.88 22.976 37.904C22.976 39.056 23.36 39.984 24.128 40.688C24.896 41.36 26.208 41.888 28.064 42.272L33.296 43.376C36.464 44.048 38.816 45.104 40.352 46.544C41.92 47.984 42.704 49.904 42.704 52.304C42.704 53.84 42.384 55.232 41.744 56.48C41.136 57.728 40.24 58.8 39.056 59.696C37.904 60.592 36.512 61.28 34.88 61.76C33.248 62.24 31.408 62.48 29.36 62.48ZM63.7213 62.48C60.2013 62.48 57.1773 61.776 54.6493 60.368C52.1533 58.928 50.2333 56.912 48.8893 54.32C47.5453 51.696 46.8733 48.608 46.8733 45.056C46.8733 42.4 47.2573 40.016 48.0253 37.904C48.7933 35.76 49.8973 33.936 51.3372 32.432C52.7773 30.896 54.5373 29.728 56.6172 28.928C58.7293 28.096 61.0973 27.68 63.7213 27.68C65.4813 27.68 67.2093 27.904 68.9053 28.352C70.6013 28.8 72.0893 29.44 73.3693 30.272C74.0413 30.688 74.4893 31.2 74.7133 31.808C74.9373 32.384 74.9853 32.96 74.8573 33.536C74.7293 34.08 74.4573 34.544 74.0413 34.928C73.6573 35.312 73.1613 35.536 72.5533 35.6C71.9773 35.632 71.3373 35.424 70.6333 34.976C69.6413 34.336 68.5693 33.872 67.4173 33.584C66.2653 33.296 65.0973 33.152 63.9133 33.152C61.6413 33.152 59.7213 33.616 58.1533 34.544C56.5853 35.472 55.4013 36.816 54.6013 38.576C53.8013 40.336 53.4013 42.496 53.4013 45.056C53.4013 47.584 53.8013 49.744 54.6013 51.536C55.4013 53.328 56.5853 54.688 58.1533 55.616C59.7213 56.544 61.6413 57.008 63.9133 57.008C65.1293 57.008 66.3293 56.864 67.5133 56.576C68.6973 56.256 69.8173 55.776 70.8733 55.136C71.5773 54.72 72.2013 54.544 72.7453 54.608C73.3213 54.64 73.8013 54.832 74.1853 55.184C74.5693 55.536 74.8253 55.984 74.9533 56.528C75.0813 57.04 75.0493 57.584 74.8573 58.16C74.6653 58.704 74.2813 59.184 73.7053 59.6C72.4253 60.528 70.8893 61.248 69.0973 61.76C67.3373 62.24 65.5453 62.48 63.7213 62.48Z" fill="white"/>
</svg>
